<svg width="1600" height="2400" viewBox="0 0 1600 2400" fill="none" xmlns="http://www.w3.org/2000/svg">
<g clip-path="url(#clip0_4682_606)">
<path d="M1086 399H1374.5C1407.64 399 1434.5 425.863 1434.5 459V747.5" stroke="black" stroke-width="18" stroke-linecap="round"/>
<path d="M1086 1667.5H1374.5C1407.64 1667.5 1434.5 1640.64 1434.5 1607.5V1319" stroke="black" stroke-width="18" stroke-linecap="round"/>
<path d="M514.5 399H226C192.863 399 166 425.863 166 459V747.5" stroke="black" stroke-width="18" stroke-linecap="round"/>
<path d="M514.5 1667.5H226C192.863 1667.5 166 1640.64 166 1607.5V1319" stroke="black" stroke-width="18" stroke-linecap="round"/>
<path d="M165.893 255.63C161.745 255.63 157.498 255.284 153.152 254.593C148.905 254 144.806 253.111 140.855 251.926C137.003 250.741 133.546 249.259 130.484 247.481C128.311 246.296 126.781 244.765 125.892 242.888C125.003 240.913 124.657 238.938 124.855 236.962C125.151 234.987 125.892 233.258 127.077 231.777C128.361 230.196 129.941 229.209 131.818 228.814C133.793 228.32 135.966 228.666 138.337 229.851C142.386 232.122 146.781 233.802 151.522 234.888C156.362 235.974 161.152 236.518 165.893 236.518C173.104 236.518 178.24 235.431 181.302 233.258C184.363 230.987 185.894 228.172 185.894 224.814C185.894 221.949 184.808 219.677 182.635 217.998C180.462 216.319 176.659 214.887 171.227 213.702L154.486 210.146C145.004 208.171 137.942 204.813 133.299 200.072C128.756 195.232 126.484 188.911 126.484 181.108C126.484 176.169 127.521 171.675 129.596 167.626C131.67 163.576 134.583 160.07 138.337 157.107C142.09 154.144 146.535 151.872 151.671 150.292C156.905 148.711 162.634 147.921 168.857 147.921C174.388 147.921 179.82 148.613 185.154 149.995C190.487 151.279 195.179 153.205 199.228 155.773C201.204 156.959 202.537 158.49 203.228 160.366C204.019 162.144 204.266 163.971 203.969 165.848C203.772 167.626 203.031 169.206 201.747 170.589C200.562 171.972 199.031 172.861 197.154 173.256C195.277 173.651 193.006 173.206 190.339 171.922C187.08 170.243 183.623 169.009 179.968 168.218C176.314 167.428 172.56 167.033 168.708 167.033C164.56 167.033 161.004 167.576 158.041 168.663C155.177 169.749 152.955 171.28 151.374 173.256C149.893 175.231 149.152 177.503 149.152 180.071C149.152 182.935 150.189 185.256 152.263 187.034C154.337 188.812 157.942 190.244 163.078 191.331L179.82 194.886C189.499 196.96 196.71 200.319 201.451 204.961C206.192 209.504 208.562 215.529 208.562 223.036C208.562 227.974 207.574 232.468 205.599 236.518C203.624 240.469 200.759 243.876 197.006 246.74C193.253 249.605 188.759 251.827 183.524 253.407C178.289 254.889 172.412 255.63 165.893 255.63ZM256.953 255.63C249.051 255.63 242.138 254.099 236.211 251.037C230.384 247.876 225.89 243.432 222.729 237.703C219.569 231.974 217.988 225.209 217.988 217.406C217.988 211.578 218.877 206.344 220.655 201.701C222.433 197.059 225.001 193.108 228.359 189.849C231.816 186.59 235.964 184.12 240.804 182.441C245.644 180.663 251.027 179.774 256.953 179.774C260.015 179.774 263.274 180.17 266.731 180.96C270.188 181.651 273.596 182.886 276.954 184.664C278.929 185.552 280.263 186.836 280.954 188.516C281.744 190.096 282.041 191.775 281.843 193.553C281.646 195.232 281.004 196.763 279.917 198.146C278.929 199.43 277.645 200.319 276.065 200.812C274.485 201.208 272.707 200.911 270.731 199.923C268.855 198.837 266.879 198.047 264.805 197.553C262.83 197.059 260.953 196.812 259.175 196.812C256.212 196.812 253.595 197.306 251.323 198.294C249.051 199.183 247.125 200.516 245.545 202.294C244.064 203.973 242.878 206.097 241.989 208.665C241.199 211.233 240.804 214.196 240.804 217.554C240.804 224.073 242.385 229.209 245.545 232.962C248.805 236.617 253.348 238.444 259.175 238.444C260.953 238.444 262.83 238.246 264.805 237.851C266.781 237.357 268.756 236.567 270.731 235.481C272.707 234.493 274.485 234.246 276.065 234.74C277.645 235.234 278.88 236.172 279.769 237.555C280.757 238.839 281.3 240.37 281.399 242.148C281.596 243.827 281.3 245.506 280.51 247.185C279.818 248.765 278.534 250 276.658 250.889C273.299 252.568 269.941 253.753 266.583 254.444C263.225 255.235 260.015 255.63 256.953 255.63ZM316.598 255.63C311.265 255.63 306.474 254.593 302.227 252.518C297.98 250.444 294.671 247.629 292.301 244.074C289.93 240.518 288.745 236.518 288.745 232.073C288.745 226.74 290.128 222.542 292.893 219.48C295.659 216.319 300.153 214.097 306.375 212.813C312.598 211.43 320.845 210.739 331.117 210.739H338.969V222.295H331.265C326.228 222.295 322.129 222.591 318.969 223.184C315.907 223.678 313.684 224.567 312.302 225.851C311.018 227.135 310.376 228.912 310.376 231.184C310.376 233.95 311.314 236.221 313.191 237.999C315.166 239.777 317.981 240.666 321.635 240.666C324.5 240.666 327.018 240.024 329.191 238.74C331.463 237.357 333.241 235.53 334.525 233.258C335.809 230.888 336.451 228.221 336.451 225.258V208.22C336.451 203.874 335.463 200.812 333.488 199.035C331.512 197.158 328.154 196.22 323.413 196.22C320.746 196.22 317.833 196.565 314.672 197.257C311.61 197.849 308.203 198.886 304.449 200.368C302.276 201.356 300.35 201.603 298.671 201.109C296.992 200.516 295.708 199.528 294.819 198.146C293.93 196.664 293.486 195.084 293.486 193.405C293.486 191.627 293.98 189.948 294.968 188.367C295.955 186.688 297.585 185.454 299.857 184.664C304.499 182.787 308.845 181.503 312.894 180.812C317.043 180.12 320.845 179.774 324.302 179.774C331.907 179.774 338.13 180.91 342.97 183.182C347.908 185.355 351.612 188.762 354.081 193.405C356.551 197.948 357.785 203.825 357.785 211.035V243.925C357.785 247.58 356.896 250.395 355.118 252.37C353.341 254.346 350.772 255.333 347.414 255.333C344.056 255.333 341.439 254.346 339.562 252.37C337.784 250.395 336.895 247.58 336.895 243.925V238.444L337.932 239.333C337.34 242.691 336.056 245.605 334.08 248.074C332.204 250.444 329.784 252.321 326.821 253.704C323.858 254.988 320.45 255.63 316.598 255.63ZM385.733 255.333C382.079 255.333 379.264 254.346 377.288 252.37C375.412 250.395 374.473 247.58 374.473 243.925V191.331C374.473 187.676 375.412 184.91 377.288 183.034C379.264 181.058 381.98 180.071 385.437 180.071C388.993 180.071 391.709 181.058 393.585 183.034C395.462 184.91 396.4 187.676 396.4 191.331V199.775L394.771 194.886C397.042 190.047 400.4 186.343 404.845 183.775C409.389 181.108 414.525 179.774 420.253 179.774C426.081 179.774 430.871 180.91 434.624 183.182C438.378 185.355 441.192 188.713 443.069 193.257C444.946 197.701 445.884 203.38 445.884 210.294V243.925C445.884 247.58 444.896 250.395 442.921 252.37C441.044 254.346 438.279 255.333 434.624 255.333C431.069 255.333 428.303 254.346 426.328 252.37C424.451 250.395 423.513 247.58 423.513 243.925V211.331C423.513 206.294 422.574 202.689 420.698 200.516C418.92 198.244 416.154 197.109 412.401 197.109C407.66 197.109 403.857 198.59 400.993 201.553C398.228 204.516 396.845 208.467 396.845 213.406V243.925C396.845 251.531 393.141 255.333 385.733 255.333ZM539.669 255.63C532.854 255.63 527.126 254.494 522.484 252.222C517.94 249.95 514.533 246.642 512.261 242.296C510.088 237.95 509.001 232.468 509.001 225.851V197.997H502.779C500.013 197.997 497.84 197.257 496.26 195.775C494.779 194.294 494.038 192.269 494.038 189.701C494.038 186.935 494.779 184.861 496.26 183.478C497.84 181.997 500.013 181.256 502.779 181.256H509.001V169.996C509.001 166.243 509.989 163.428 511.965 161.551C513.94 159.576 516.705 158.588 520.261 158.588C523.916 158.588 526.681 159.576 528.558 161.551C530.434 163.428 531.373 166.243 531.373 169.996V181.256H545.448C548.213 181.256 550.337 181.997 551.818 183.478C553.3 184.861 554.04 186.935 554.04 189.701C554.04 192.269 553.3 194.294 551.818 195.775C550.337 197.257 548.213 197.997 545.448 197.997H531.373V224.962C531.373 229.11 532.311 232.221 534.188 234.295C536.163 236.37 539.274 237.407 543.521 237.407C545.003 237.407 546.386 237.259 547.67 236.962C548.954 236.666 550.139 236.468 551.226 236.37C552.608 236.271 553.744 236.715 554.633 237.703C555.522 238.592 555.967 240.617 555.967 243.777C555.967 246.148 555.571 248.222 554.781 250C553.991 251.778 552.608 253.062 550.633 253.852C549.349 254.346 547.571 254.741 545.299 255.037C543.126 255.432 541.25 255.63 539.669 255.63ZM598.104 255.63C590.301 255.63 583.486 254.099 577.658 251.037C571.93 247.975 567.485 243.58 564.325 237.851C561.164 232.122 559.584 225.357 559.584 217.554C559.584 211.726 560.472 206.492 562.25 201.85C564.028 197.207 566.596 193.257 569.954 189.997C573.411 186.639 577.51 184.12 582.251 182.441C586.992 180.663 592.276 179.774 598.104 179.774C605.907 179.774 612.672 181.305 618.401 184.367C624.228 187.429 628.722 191.775 631.883 197.405C635.143 203.035 636.772 209.751 636.772 217.554C636.772 223.48 635.834 228.764 633.957 233.406C632.179 238.049 629.611 242.049 626.253 245.407C622.895 248.765 618.796 251.333 613.956 253.111C609.215 254.79 603.931 255.63 598.104 255.63ZM598.104 238.888C601.363 238.888 604.178 238.098 606.549 236.518C608.919 234.937 610.796 232.616 612.179 229.554C613.561 226.394 614.253 222.394 614.253 217.554C614.253 210.344 612.771 205.06 609.808 201.701C606.845 198.244 602.944 196.516 598.104 196.516C594.943 196.516 592.128 197.257 589.659 198.738C587.289 200.22 585.412 202.541 584.029 205.702C582.745 208.763 582.103 212.714 582.103 217.554C582.103 224.764 583.585 230.147 586.548 233.703C589.511 237.16 593.363 238.888 598.104 238.888ZM742.135 255.63C731.862 255.63 722.825 253.407 715.022 248.963C707.318 244.419 701.293 238.098 696.947 229.999C692.7 221.9 690.577 212.467 690.577 201.701C690.577 193.503 691.762 186.145 694.132 179.626C696.602 173.009 700.108 167.379 704.651 162.737C709.195 157.996 714.627 154.341 720.948 151.773C727.368 149.205 734.431 147.921 742.135 147.921C752.604 147.921 761.691 150.143 769.395 154.588C777.099 159.033 783.075 165.305 787.322 173.404C791.668 181.404 793.841 190.787 793.841 201.553C793.841 209.751 792.606 217.159 790.137 223.776C787.667 230.394 784.161 236.073 779.618 240.814C775.074 245.555 769.642 249.21 763.321 251.778C756.999 254.346 749.937 255.63 742.135 255.63ZM742.135 236.073C747.962 236.073 752.9 234.74 756.95 232.073C761.098 229.308 764.259 225.357 766.432 220.221C768.704 214.986 769.84 208.813 769.84 201.701C769.84 190.837 767.42 182.441 762.58 176.515C757.74 170.49 750.925 167.478 742.135 167.478C736.406 167.478 731.467 168.811 727.319 171.478C723.171 174.145 720.01 178.046 717.837 183.182C715.664 188.318 714.578 194.491 714.578 201.701C714.578 212.467 716.998 220.912 721.837 227.036C726.677 233.061 733.443 236.073 742.135 236.073ZM821.234 255.333C817.481 255.333 814.617 254.346 812.641 252.37C810.666 250.395 809.678 247.58 809.678 243.925V191.331C809.678 187.676 810.616 184.91 812.493 183.034C814.468 181.058 817.185 180.071 820.642 180.071C824.197 180.071 826.913 181.058 828.79 183.034C830.667 184.91 831.605 187.676 831.605 191.331V199.035H830.123C831.309 193.108 833.926 188.516 837.976 185.256C842.025 181.997 847.26 180.17 853.68 179.774C856.149 179.577 858.026 180.219 859.31 181.7C860.693 183.083 861.434 185.404 861.532 188.664C861.73 191.726 861.088 194.145 859.606 195.923C858.224 197.701 855.853 198.788 852.495 199.183L849.087 199.479C843.457 199.973 839.26 201.603 836.494 204.368C833.827 207.134 832.494 211.134 832.494 216.369V243.925C832.494 247.58 831.506 250.395 829.531 252.37C827.654 254.346 824.889 255.333 821.234 255.333ZM897.73 255.63C891.408 255.63 885.828 254.099 880.988 251.037C876.247 247.975 872.543 243.58 869.876 237.851C867.21 232.122 865.876 225.357 865.876 217.554C865.876 209.751 867.21 203.035 869.876 197.405C872.543 191.775 876.247 187.429 880.988 184.367C885.828 181.305 891.408 179.774 897.73 179.774C903.458 179.774 908.495 181.157 912.841 183.923C917.286 186.688 920.298 190.293 921.879 194.738H920.249V159.625C920.249 155.872 921.187 153.057 923.064 151.181C924.941 149.205 927.706 148.217 931.361 148.217C934.916 148.217 937.682 149.205 939.657 151.181C941.633 153.057 942.62 155.872 942.62 159.625V243.925C942.62 247.58 941.633 250.395 939.657 252.37C937.781 254.346 935.065 255.333 931.509 255.333C927.953 255.333 925.188 254.346 923.212 252.37C921.336 250.395 920.397 247.58 920.397 243.925V233.851L922.027 239.629C920.644 244.469 917.681 248.37 913.138 251.333C908.693 254.198 903.557 255.63 897.73 255.63ZM904.397 238.888C907.656 238.888 910.471 238.098 912.841 236.518C915.212 234.937 917.088 232.616 918.471 229.554C919.854 226.394 920.545 222.394 920.545 217.554C920.545 210.344 919.064 205.06 916.101 201.701C913.138 198.244 909.236 196.516 904.397 196.516C901.236 196.516 898.421 197.257 895.952 198.738C893.581 200.22 891.705 202.541 890.322 205.702C889.038 208.763 888.396 212.714 888.396 217.554C888.396 224.764 889.877 230.147 892.84 233.703C895.804 237.16 899.656 238.888 904.397 238.888ZM997.638 255.63C989.045 255.63 981.637 254.099 975.415 251.037C969.291 247.876 964.55 243.481 961.192 237.851C957.932 232.122 956.303 225.406 956.303 217.702C956.303 210.196 957.883 203.627 961.044 197.997C964.204 192.269 968.6 187.824 974.229 184.664C979.958 181.404 986.428 179.774 993.638 179.774C998.873 179.774 1003.61 180.663 1007.86 182.441C1012.11 184.12 1015.76 186.59 1018.82 189.849C1021.89 193.01 1024.21 196.911 1025.79 201.553C1027.37 206.097 1028.16 211.183 1028.16 216.813C1028.16 218.69 1027.57 220.122 1026.38 221.11C1025.19 221.999 1023.47 222.443 1021.19 222.443H974.674V210.887H1012.01L1009.64 212.961C1009.64 208.912 1009.05 205.553 1007.86 202.887C1006.68 200.121 1004.95 198.047 1002.68 196.664C1000.5 195.281 997.786 194.59 994.527 194.59C990.872 194.59 987.761 195.429 985.193 197.109C982.625 198.788 980.65 201.208 979.267 204.368C977.884 207.529 977.193 211.331 977.193 215.776V216.961C977.193 224.468 978.921 229.999 982.378 233.555C985.934 237.11 991.169 238.888 998.082 238.888C1000.45 238.888 1003.17 238.592 1006.23 237.999C1009.29 237.407 1012.16 236.468 1014.82 235.184C1017.1 234.098 1019.12 233.752 1020.9 234.147C1022.68 234.444 1024.06 235.234 1025.05 236.518C1026.03 237.802 1026.58 239.283 1026.68 240.962C1026.87 242.641 1026.53 244.321 1025.64 246C1024.75 247.58 1023.27 248.913 1021.19 250C1017.84 251.876 1014.03 253.259 1009.79 254.148C1005.64 255.136 1001.59 255.63 997.638 255.63ZM1052.73 255.333C1048.97 255.333 1046.11 254.346 1044.13 252.37C1042.16 250.395 1041.17 247.58 1041.17 243.925V191.331C1041.17 187.676 1042.11 184.91 1043.98 183.034C1045.96 181.058 1048.68 180.071 1052.13 180.071C1055.69 180.071 1058.41 181.058 1060.28 183.034C1062.16 184.91 1063.1 187.676 1063.1 191.331V199.035H1061.62C1062.8 193.108 1065.42 188.516 1069.47 185.256C1073.52 181.997 1078.75 180.17 1085.17 179.774C1087.64 179.577 1089.52 180.219 1090.8 181.7C1092.18 183.083 1092.93 185.404 1093.02 188.664C1093.22 191.726 1092.58 194.145 1091.1 195.923C1089.72 197.701 1087.34 198.788 1083.99 199.183L1080.58 199.479C1074.95 199.973 1070.75 201.603 1067.99 204.368C1065.32 207.134 1063.99 211.134 1063.99 216.369V243.925C1063.99 247.58 1063 250.395 1061.02 252.37C1059.15 254.346 1056.38 255.333 1052.73 255.333ZM1157.24 255.333C1153.48 255.333 1150.57 254.296 1148.49 252.222C1146.52 250.148 1145.53 247.135 1145.53 243.185V161.551C1145.53 157.699 1146.57 154.736 1148.64 152.662C1150.72 150.588 1153.68 149.551 1157.53 149.551H1208.2C1211.16 149.551 1213.39 150.341 1214.87 151.921C1216.45 153.403 1217.24 155.576 1217.24 158.44C1217.24 161.403 1216.45 163.675 1214.87 165.255C1213.39 166.737 1211.16 167.478 1208.2 167.478H1168.5V192.96H1204.94C1207.9 192.96 1210.18 193.75 1211.76 195.331C1213.34 196.812 1214.13 198.985 1214.13 201.85C1214.13 204.714 1213.34 206.936 1211.76 208.516C1210.18 210.097 1207.9 210.887 1204.94 210.887H1168.5V243.185C1168.5 251.284 1164.74 255.333 1157.24 255.333ZM1260.6 255.63C1252.8 255.63 1245.99 254.099 1240.16 251.037C1234.43 247.975 1229.99 243.58 1226.83 237.851C1223.66 232.122 1222.08 225.357 1222.08 217.554C1222.08 211.726 1222.97 206.492 1224.75 201.85C1226.53 197.207 1229.1 193.257 1232.46 189.997C1235.91 186.639 1240.01 184.12 1244.75 182.441C1249.49 180.663 1254.78 179.774 1260.6 179.774C1268.41 179.774 1275.17 181.305 1280.9 184.367C1286.73 187.429 1291.22 191.775 1294.38 197.405C1297.64 203.035 1299.27 209.751 1299.27 217.554C1299.27 223.48 1298.33 228.764 1296.46 233.406C1294.68 238.049 1292.11 242.049 1288.75 245.407C1285.4 248.765 1281.3 251.333 1276.46 253.111C1271.72 254.79 1266.43 255.63 1260.6 255.63ZM1260.6 238.888C1263.86 238.888 1266.68 238.098 1269.05 236.518C1271.42 234.937 1273.3 232.616 1274.68 229.554C1276.06 226.394 1276.75 222.394 1276.75 217.554C1276.75 210.344 1275.27 205.06 1272.31 201.701C1269.35 198.244 1265.44 196.516 1260.6 196.516C1257.44 196.516 1254.63 197.257 1252.16 198.738C1249.79 200.22 1247.91 202.541 1246.53 205.702C1245.25 208.763 1244.6 212.714 1244.6 217.554C1244.6 224.764 1246.09 230.147 1249.05 233.703C1252.01 237.16 1255.86 238.888 1260.6 238.888ZM1347.85 255.63C1340.05 255.63 1333.23 254.099 1327.4 251.037C1321.67 247.975 1317.23 243.58 1314.07 237.851C1310.91 232.122 1309.33 225.357 1309.33 217.554C1309.33 211.726 1310.22 206.492 1311.99 201.85C1313.77 197.207 1316.34 193.257 1319.7 189.997C1323.16 186.639 1327.25 184.12 1332 182.441C1336.74 180.663 1342.02 179.774 1347.85 179.774C1355.65 179.774 1362.42 181.305 1368.15 184.367C1373.97 187.429 1378.47 191.775 1381.63 197.405C1384.89 203.035 1386.52 209.751 1386.52 217.554C1386.52 223.48 1385.58 228.764 1383.7 233.406C1381.92 238.049 1379.36 242.049 1376 245.407C1372.64 248.765 1368.54 251.333 1363.7 253.111C1358.96 254.79 1353.68 255.63 1347.85 255.63ZM1347.85 238.888C1351.11 238.888 1353.92 238.098 1356.29 236.518C1358.66 234.937 1360.54 232.616 1361.92 229.554C1363.31 226.394 1364 222.394 1364 217.554C1364 210.344 1362.52 205.06 1359.55 201.701C1356.59 198.244 1352.69 196.516 1347.85 196.516C1344.69 196.516 1341.87 197.257 1339.4 198.738C1337.03 200.22 1335.16 202.541 1333.77 205.702C1332.49 208.763 1331.85 212.714 1331.85 217.554C1331.85 224.764 1333.33 230.147 1336.29 233.703C1339.26 237.16 1343.11 238.888 1347.85 238.888ZM1428.42 255.63C1422.1 255.63 1416.52 254.099 1411.68 251.037C1406.94 247.975 1403.24 243.58 1400.57 237.851C1397.9 232.122 1396.57 225.357 1396.57 217.554C1396.57 209.751 1397.9 203.035 1400.57 197.405C1403.24 191.775 1406.94 187.429 1411.68 184.367C1416.52 181.305 1422.1 179.774 1428.42 179.774C1434.15 179.774 1439.19 181.157 1443.54 183.923C1447.98 186.688 1450.99 190.293 1452.57 194.738H1450.94V159.625C1450.94 155.872 1451.88 153.057 1453.76 151.181C1455.64 149.205 1458.4 148.217 1462.06 148.217C1465.61 148.217 1468.38 149.205 1470.35 151.181C1472.33 153.057 1473.32 155.872 1473.32 159.625V243.925C1473.32 247.58 1472.33 250.395 1470.35 252.37C1468.48 254.346 1465.76 255.333 1462.2 255.333C1458.65 255.333 1455.88 254.346 1453.91 252.37C1452.03 250.395 1451.09 247.58 1451.09 243.925V233.851L1452.72 239.629C1451.34 244.469 1448.38 248.37 1443.83 251.333C1439.39 254.198 1434.25 255.63 1428.42 255.63ZM1435.09 238.888C1438.35 238.888 1441.17 238.098 1443.54 236.518C1445.91 234.937 1447.78 232.616 1449.17 229.554C1450.55 226.394 1451.24 222.394 1451.24 217.554C1451.24 210.344 1449.76 205.06 1446.8 201.701C1443.83 198.244 1439.93 196.516 1435.09 196.516C1431.93 196.516 1429.12 197.257 1426.65 198.738C1424.28 200.22 1422.4 202.541 1421.02 205.702C1419.73 208.763 1419.09 212.714 1419.09 217.554C1419.09 224.764 1420.57 230.147 1423.54 233.703C1426.5 237.16 1430.35 238.888 1435.09 238.888Z" fill="black"/>
<path d="M1273.76 1797.89C1272.78 1793.57 1268.94 1790.5 1264.5 1790.5C1260.06 1790.5 1256.22 1793.57 1255.24 1797.89L1251.74 1813.27C1249.31 1823.96 1240.96 1832.31 1230.27 1834.74L1214.89 1838.24C1210.57 1839.22 1207.5 1843.06 1207.5 1847.5C1207.5 1851.94 1210.57 1855.78 1214.89 1856.76L1230.27 1860.26C1240.96 1862.69 1249.31 1871.04 1251.74 1881.73L1255.24 1897.11C1256.22 1901.43 1260.06 1904.5 1264.5 1904.5C1268.94 1904.5 1272.78 1901.43 1273.76 1897.11L1277.26 1881.73C1279.69 1871.04 1288.04 1862.69 1298.73 1860.26L1314.11 1856.76C1318.43 1855.78 1321.5 1851.94 1321.5 1847.5C1321.5 1843.06 1318.43 1839.22 1314.11 1838.24L1298.73 1834.74C1288.04 1832.31 1279.69 1823.96 1277.26 1813.27L1273.76 1797.89Z" fill="black"/>
<path fill-rule="evenodd" clip-rule="evenodd" d="M1193.25 1847.5C1193.25 1844.15 1193.95 1840.93 1195.23 1838H1074.5C1053.51 1838 1036.5 1855.01 1036.5 1876V2037.5C1036.5 2058.49 1053.51 2075.5 1074.5 2075.5H1283.5C1304.49 2075.5 1321.5 2058.49 1321.5 2037.5V1876C1321.5 1873.78 1321.31 1871.61 1320.95 1869.5C1319.77 1869.98 1318.54 1870.37 1317.27 1870.66L1301.89 1874.16C1296.54 1875.37 1292.37 1879.54 1291.16 1884.89L1287.66 1900.27C1285.2 1911.08 1275.59 1918.75 1264.5 1918.75C1253.41 1918.75 1243.8 1911.08 1241.34 1900.27L1237.84 1884.89C1236.63 1879.54 1232.46 1875.37 1227.11 1874.16L1211.73 1870.66C1200.92 1868.2 1193.25 1858.59 1193.25 1847.5ZM1212.81 1933.04C1229.73 1944.32 1229.73 1969.18 1212.81 1980.46L1180.56 2001.96C1161.62 2014.59 1136.25 2001.01 1136.25 1978.25V1935.25C1136.25 1912.49 1161.62 1898.91 1180.56 1911.54L1212.81 1933.04Z" fill="black"/>
<path d="M980.98 2185V2140.7H997.592C1001 2140.7 1003.85 2141.34 1006.16 2142.61C1008.48 2143.87 1010.23 2145.62 1011.41 2147.84C1012.61 2150.05 1013.21 2152.56 1013.21 2155.37C1013.21 2158.21 1012.61 2160.73 1011.41 2162.94C1010.22 2165.14 1008.45 2166.88 1006.11 2168.15C1003.78 2169.4 1000.9 2170.03 997.484 2170.03H986.474V2163.43H996.402C998.392 2163.43 1000.02 2163.09 1001.29 2162.4C1002.56 2161.7 1003.5 2160.75 1004.1 2159.54C1004.72 2158.33 1005.03 2156.94 1005.03 2155.37C1005.03 2153.8 1004.72 2152.41 1004.1 2151.21C1003.5 2150.02 1002.55 2149.09 1001.27 2148.42C1000 2147.75 998.364 2147.41 996.359 2147.41H989.005V2185H980.98ZM1033.85 2185.65C1030.6 2185.65 1027.79 2184.94 1025.41 2183.51C1023.03 2182.08 1021.19 2180.08 1019.88 2177.52C1018.58 2174.95 1017.93 2171.95 1017.93 2168.52C1017.93 2165.09 1018.58 2162.08 1019.88 2159.5C1021.19 2156.92 1023.03 2154.91 1025.41 2153.49C1027.79 2152.06 1030.6 2151.34 1033.85 2151.34C1037.09 2151.34 1039.91 2152.06 1042.29 2153.49C1044.66 2154.91 1046.5 2156.92 1047.8 2159.5C1049.11 2162.08 1049.77 2165.09 1049.77 2168.52C1049.77 2171.95 1049.11 2174.95 1047.8 2177.52C1046.5 2180.08 1044.66 2182.08 1042.29 2183.51C1039.91 2184.94 1037.09 2185.65 1033.85 2185.65ZM1033.89 2179.38C1035.65 2179.38 1037.12 2178.89 1038.31 2177.93C1039.49 2176.95 1040.37 2175.63 1040.94 2173.99C1041.54 2172.35 1041.83 2170.52 1041.83 2168.5C1041.83 2166.46 1041.54 2164.62 1040.94 2162.98C1040.37 2161.32 1039.49 2160 1038.31 2159.02C1037.12 2158.04 1035.65 2157.55 1033.89 2157.55C1032.09 2157.55 1030.59 2158.04 1029.39 2159.02C1028.21 2160 1027.32 2161.32 1026.73 2162.98C1026.16 2164.62 1025.87 2166.46 1025.87 2168.5C1025.87 2170.52 1026.16 2172.35 1026.73 2173.99C1027.32 2175.63 1028.21 2176.95 1029.39 2177.93C1030.59 2178.89 1032.09 2179.38 1033.89 2179.38ZM1082.67 2160.56L1075.54 2161.34C1075.33 2160.62 1074.98 2159.94 1074.48 2159.3C1073.99 2158.67 1073.32 2158.16 1072.49 2157.77C1071.65 2157.38 1070.63 2157.18 1069.41 2157.18C1067.79 2157.18 1066.42 2157.54 1065.3 2158.24C1064.21 2158.95 1063.67 2159.87 1063.68 2160.99C1063.67 2161.96 1064.02 2162.74 1064.74 2163.35C1065.48 2163.95 1066.69 2164.45 1068.38 2164.84L1074.04 2166.05C1077.19 2166.73 1079.52 2167.8 1081.05 2169.28C1082.59 2170.75 1083.37 2172.67 1083.39 2175.05C1083.37 2177.14 1082.76 2178.99 1081.55 2180.59C1080.35 2182.17 1078.69 2183.41 1076.55 2184.31C1074.42 2185.2 1071.97 2185.65 1069.2 2185.65C1065.13 2185.65 1061.86 2184.8 1059.38 2183.1C1056.9 2181.38 1055.42 2178.99 1054.94 2175.94L1062.58 2175.2C1062.93 2176.7 1063.66 2177.83 1064.79 2178.6C1065.91 2179.36 1067.37 2179.74 1069.18 2179.74C1071.04 2179.74 1072.53 2179.36 1073.65 2178.6C1074.79 2177.83 1075.36 2176.89 1075.36 2175.76C1075.36 2174.81 1074.99 2174.03 1074.26 2173.41C1073.54 2172.79 1072.41 2172.31 1070.89 2171.98L1065.22 2170.79C1062.03 2170.13 1059.67 2169.01 1058.15 2167.44C1056.62 2165.85 1055.86 2163.85 1055.87 2161.42C1055.86 2159.38 1056.41 2157.6 1057.54 2156.1C1058.68 2154.59 1060.26 2153.42 1062.28 2152.6C1064.31 2151.76 1066.65 2151.34 1069.31 2151.34C1073.2 2151.34 1076.26 2152.17 1078.5 2153.83C1080.75 2155.49 1082.14 2157.73 1082.67 2160.56ZM1106.43 2151.78V2157.83H1087.33V2151.78H1106.43ZM1092.05 2143.82H1099.88V2175.01C1099.88 2176.06 1100.04 2176.87 1100.36 2177.43C1100.69 2177.98 1101.12 2178.35 1101.65 2178.55C1102.19 2178.76 1102.78 2178.86 1103.43 2178.86C1103.92 2178.86 1104.36 2178.82 1104.77 2178.75C1105.19 2178.68 1105.5 2178.61 1105.72 2178.55L1107.04 2184.68C1106.62 2184.82 1106.02 2184.98 1105.24 2185.15C1104.48 2185.32 1103.54 2185.43 1102.43 2185.45C1100.47 2185.51 1098.71 2185.22 1097.13 2184.57C1095.56 2183.9 1094.31 2182.88 1093.39 2181.5C1092.48 2180.11 1092.04 2178.38 1092.05 2176.3V2143.82ZM1128.44 2185V2140.7H1157.25V2147.43H1136.46V2159.46H1155.76V2166.18H1136.46V2178.27H1157.42V2185H1128.44ZM1174.65 2185.67C1172.54 2185.67 1170.65 2185.3 1168.96 2184.55C1167.29 2183.78 1165.96 2182.66 1164.98 2181.17C1164.01 2179.69 1163.53 2177.85 1163.53 2175.68C1163.53 2173.8 1163.88 2172.25 1164.57 2171.03C1165.26 2169.8 1166.21 2168.82 1167.4 2168.09C1168.6 2167.35 1169.95 2166.79 1171.45 2166.42C1172.96 2166.03 1174.53 2165.75 1176.14 2165.58C1178.09 2165.37 1179.67 2165.19 1180.88 2165.04C1182.09 2164.86 1182.97 2164.6 1183.52 2164.26C1184.08 2163.9 1184.36 2163.34 1184.36 2162.59V2162.46C1184.36 2160.83 1183.88 2159.57 1182.91 2158.68C1181.95 2157.78 1180.55 2157.34 1178.74 2157.34C1176.82 2157.34 1175.3 2157.75 1174.17 2158.59C1173.06 2159.43 1172.31 2160.41 1171.92 2161.55L1164.61 2160.51C1165.19 2158.5 1166.14 2156.81 1167.47 2155.45C1168.8 2154.08 1170.42 2153.06 1172.34 2152.38C1174.25 2151.69 1176.37 2151.34 1178.69 2151.34C1180.3 2151.34 1181.89 2151.53 1183.47 2151.91C1185.06 2152.28 1186.51 2152.9 1187.82 2153.77C1189.13 2154.62 1190.19 2155.78 1190.98 2157.25C1191.79 2158.72 1192.19 2160.56 1192.19 2162.76V2185H1184.66V2180.44H1184.4C1183.93 2181.36 1183.26 2182.22 1182.39 2183.03C1181.54 2183.82 1180.47 2184.47 1179.17 2184.96C1177.89 2185.43 1176.38 2185.67 1174.65 2185.67ZM1176.68 2179.92C1178.25 2179.92 1179.62 2179.61 1180.77 2178.99C1181.92 2178.35 1182.81 2177.52 1183.43 2176.48C1184.07 2175.44 1184.38 2174.31 1184.38 2173.08V2169.17C1184.14 2169.37 1183.72 2169.56 1183.13 2169.73C1182.55 2169.9 1181.9 2170.05 1181.18 2170.18C1180.46 2170.31 1179.75 2170.43 1179.04 2170.53C1178.33 2170.63 1177.72 2170.72 1177.2 2170.79C1176.03 2170.95 1174.99 2171.21 1174.07 2171.57C1173.14 2171.93 1172.41 2172.43 1171.88 2173.08C1171.35 2173.72 1171.08 2174.54 1171.08 2175.55C1171.08 2176.99 1171.61 2178.08 1172.66 2178.81C1173.71 2179.55 1175.05 2179.92 1176.68 2179.92ZM1216.66 2151.78V2157.83H1197.56V2151.78H1216.66ZM1202.27 2143.82H1210.1V2175.01C1210.1 2176.06 1210.26 2176.87 1210.58 2177.43C1210.91 2177.98 1211.34 2178.35 1211.87 2178.55C1212.41 2178.76 1213 2178.86 1213.65 2178.86C1214.14 2178.86 1214.59 2178.82 1214.99 2178.75C1215.41 2178.68 1215.72 2178.61 1215.94 2178.55L1217.26 2184.68C1216.84 2184.82 1216.24 2184.98 1215.47 2185.15C1214.7 2185.32 1213.76 2185.43 1212.65 2185.45C1210.69 2185.51 1208.93 2185.22 1207.35 2184.57C1205.78 2183.9 1204.54 2182.88 1203.61 2181.5C1202.7 2180.11 1202.26 2178.38 1202.27 2176.3V2143.82ZM1248.99 2160.56L1241.85 2161.34C1241.65 2160.62 1241.29 2159.94 1240.79 2159.3C1240.3 2158.67 1239.64 2158.16 1238.8 2157.77C1237.96 2157.38 1236.94 2157.18 1235.73 2157.18C1234.1 2157.18 1232.73 2157.54 1231.62 2158.24C1230.52 2158.95 1229.98 2159.87 1230 2160.99C1229.98 2161.96 1230.33 2162.74 1231.06 2163.35C1231.79 2163.95 1233 2164.45 1234.69 2164.84L1240.36 2166.05C1243.5 2166.73 1245.84 2167.8 1247.36 2169.28C1248.91 2170.75 1249.69 2172.67 1249.7 2175.05C1249.69 2177.14 1249.07 2178.99 1247.86 2180.59C1246.66 2182.17 1245 2183.41 1242.87 2184.31C1240.73 2185.2 1238.28 2185.65 1235.51 2185.65C1231.44 2185.65 1228.17 2184.8 1225.69 2183.1C1223.21 2181.38 1221.73 2178.99 1221.26 2175.94L1228.89 2175.2C1229.24 2176.7 1229.97 2177.83 1231.1 2178.6C1232.22 2179.36 1233.69 2179.74 1235.49 2179.74C1237.35 2179.74 1238.84 2179.36 1239.97 2178.6C1241.11 2177.83 1241.68 2176.89 1241.68 2175.76C1241.68 2174.81 1241.31 2174.03 1240.57 2173.41C1239.85 2172.79 1238.73 2172.31 1237.2 2171.98L1231.53 2170.79C1228.34 2170.13 1225.99 2169.01 1224.46 2167.44C1222.93 2165.85 1222.17 2163.85 1222.19 2161.42C1222.17 2159.38 1222.73 2157.6 1223.85 2156.1C1224.99 2154.59 1226.57 2153.42 1228.59 2152.6C1230.62 2151.76 1232.97 2151.34 1235.62 2151.34C1239.51 2151.34 1242.58 2152.17 1244.81 2153.83C1247.06 2155.49 1248.45 2157.73 1248.99 2160.56ZM1263.99 2165.53V2185H1256.16V2140.7H1263.81V2157.42H1264.2C1264.98 2155.55 1266.19 2154.07 1267.82 2152.99C1269.46 2151.89 1271.55 2151.34 1274.09 2151.34C1276.4 2151.34 1278.41 2151.83 1280.12 2152.79C1281.84 2153.76 1283.17 2155.17 1284.1 2157.03C1285.05 2158.89 1285.53 2161.16 1285.53 2163.85V2185H1277.7V2165.06C1277.7 2162.82 1277.12 2161.08 1275.97 2159.84C1274.83 2158.59 1273.23 2157.96 1271.17 2157.96C1269.78 2157.96 1268.54 2158.27 1267.45 2158.87C1266.37 2159.46 1265.52 2160.32 1264.9 2161.44C1264.29 2162.57 1263.99 2163.93 1263.99 2165.53ZM1308 2185.65C1304.76 2185.65 1301.95 2184.94 1299.57 2183.51C1297.19 2182.08 1295.34 2180.08 1294.03 2177.52C1292.73 2174.95 1292.08 2171.95 1292.08 2168.52C1292.08 2165.09 1292.73 2162.08 1294.03 2159.5C1295.34 2156.92 1297.19 2154.91 1299.57 2153.49C1301.95 2152.06 1304.76 2151.34 1308 2151.34C1311.25 2151.34 1314.06 2152.06 1316.44 2153.49C1318.82 2154.91 1320.66 2156.92 1321.96 2159.5C1323.27 2162.08 1323.92 2165.09 1323.92 2168.52C1323.92 2171.95 1323.27 2174.95 1321.96 2177.52C1320.66 2180.08 1318.82 2182.08 1316.44 2183.51C1314.06 2184.94 1311.25 2185.65 1308 2185.65ZM1308.05 2179.38C1309.81 2179.38 1311.28 2178.89 1312.46 2177.93C1313.64 2176.95 1314.52 2175.63 1315.1 2173.99C1315.69 2172.35 1315.99 2170.52 1315.99 2168.5C1315.99 2166.46 1315.69 2164.62 1315.1 2162.98C1314.52 2161.32 1313.64 2160 1312.46 2159.02C1311.28 2158.04 1309.81 2157.55 1308.05 2157.55C1306.24 2157.55 1304.74 2158.04 1303.55 2159.02C1302.37 2160 1301.48 2161.32 1300.89 2162.98C1300.31 2164.62 1300.02 2166.46 1300.02 2168.5C1300.02 2170.52 1300.31 2172.35 1300.89 2173.99C1301.48 2175.63 1302.37 2176.95 1303.55 2177.93C1304.74 2178.89 1306.24 2179.38 1308.05 2179.38ZM1347.16 2151.78V2157.83H1328.06V2151.78H1347.16ZM1332.78 2143.82H1340.61V2175.01C1340.61 2176.06 1340.76 2176.87 1341.08 2177.43C1341.41 2177.98 1341.85 2178.35 1342.38 2178.55C1342.91 2178.76 1343.5 2178.86 1344.15 2178.86C1344.64 2178.86 1345.09 2178.82 1345.49 2178.75C1345.91 2178.68 1346.23 2178.61 1346.45 2178.55L1347.77 2184.68C1347.35 2184.82 1346.75 2184.98 1345.97 2185.15C1345.21 2185.32 1344.27 2185.43 1343.16 2185.45C1341.2 2185.51 1339.43 2185.22 1337.86 2184.57C1336.29 2183.9 1335.04 2182.88 1334.12 2181.5C1333.21 2180.11 1332.76 2178.38 1332.78 2176.3V2143.82ZM1362.9 2178.94L1362.62 2181.32C1362.42 2183.14 1362.06 2184.99 1361.54 2186.86C1361.03 2188.75 1360.5 2190.49 1359.94 2192.07C1359.38 2193.66 1358.92 2194.91 1358.57 2195.81H1353.3C1353.5 2194.94 1353.77 2193.74 1354.12 2192.22C1354.48 2190.71 1354.83 2189.01 1355.16 2187.12C1355.49 2185.23 1355.71 2183.31 1355.83 2181.37L1355.98 2178.94H1362.9ZM899.022 2246.56L891.884 2247.34C891.682 2246.62 891.329 2245.94 890.824 2245.3C890.334 2244.67 889.67 2244.16 888.834 2243.77C887.998 2243.38 886.974 2243.18 885.762 2243.18C884.133 2243.18 882.763 2243.54 881.653 2244.24C880.557 2244.95 880.016 2245.87 880.031 2246.99C880.016 2247.96 880.369 2248.74 881.09 2249.35C881.826 2249.95 883.037 2250.45 884.724 2250.84L890.391 2252.05C893.535 2252.73 895.871 2253.8 897.399 2255.28C898.942 2256.75 899.721 2258.67 899.735 2261.05C899.721 2263.14 899.108 2264.99 897.897 2266.59C896.7 2268.17 895.035 2269.41 892.9 2270.31C890.766 2271.2 888.315 2271.65 885.546 2271.65C881.48 2271.65 878.206 2270.8 875.726 2269.1C873.246 2267.38 871.768 2264.99 871.292 2261.94L878.927 2261.2C879.273 2262.7 880.009 2263.83 881.134 2264.6C882.258 2265.36 883.722 2265.74 885.525 2265.74C887.385 2265.74 888.877 2265.36 890.002 2264.6C891.141 2263.83 891.711 2262.89 891.711 2261.76C891.711 2260.81 891.343 2260.03 890.608 2259.41C889.887 2258.79 888.762 2258.31 887.233 2257.98L881.566 2256.79C878.379 2256.13 876.022 2255.01 874.493 2253.44C872.965 2251.85 872.208 2249.85 872.222 2247.42C872.208 2245.38 872.763 2243.6 873.888 2242.1C875.027 2240.59 876.606 2239.42 878.625 2238.6C880.658 2237.76 883.001 2237.34 885.654 2237.34C889.548 2237.34 892.612 2238.17 894.847 2239.83C897.097 2241.49 898.488 2243.73 899.022 2246.56ZM914.022 2251.53V2271H906.192V2226.7H913.849V2243.42H914.238C915.017 2241.55 916.221 2240.07 917.851 2238.99C919.494 2237.89 921.585 2237.34 924.123 2237.34C926.43 2237.34 928.442 2237.83 930.158 2238.79C931.874 2239.76 933.201 2241.17 934.138 2243.03C935.09 2244.89 935.565 2247.16 935.565 2249.85V2271H927.735V2251.06C927.735 2248.82 927.159 2247.08 926.005 2245.84C924.866 2244.59 923.265 2243.96 921.203 2243.96C919.819 2243.96 918.579 2244.27 917.483 2244.87C916.401 2245.46 915.551 2246.32 914.93 2247.44C914.325 2248.57 914.022 2249.93 914.022 2251.53ZM953.107 2271.67C951.002 2271.67 949.106 2271.3 947.419 2270.55C945.746 2269.78 944.419 2268.66 943.439 2267.17C942.473 2265.69 941.99 2263.85 941.99 2261.68C941.99 2259.8 942.336 2258.25 943.028 2257.03C943.72 2255.8 944.664 2254.82 945.861 2254.09C947.058 2253.35 948.406 2252.79 949.906 2252.42C951.42 2252.03 952.985 2251.75 954.6 2251.58C956.547 2251.37 958.126 2251.19 959.337 2251.04C960.548 2250.86 961.428 2250.6 961.976 2250.26C962.538 2249.9 962.819 2249.34 962.819 2248.59V2248.46C962.819 2246.83 962.336 2245.57 961.37 2244.68C960.404 2243.78 959.012 2243.34 957.195 2243.34C955.278 2243.34 953.756 2243.75 952.632 2244.59C951.521 2245.43 950.771 2246.41 950.382 2247.55L943.071 2246.51C943.648 2244.5 944.6 2242.81 945.926 2241.45C947.253 2240.08 948.875 2239.06 950.793 2238.38C952.711 2237.69 954.831 2237.34 957.152 2237.34C958.753 2237.34 960.346 2237.53 961.932 2237.91C963.519 2238.28 964.968 2238.9 966.28 2239.77C967.592 2240.62 968.645 2241.78 969.438 2243.25C970.246 2244.72 970.649 2246.56 970.649 2248.76V2271H963.122V2266.44H962.863C962.387 2267.36 961.716 2268.22 960.851 2269.03C960 2269.82 958.926 2270.47 957.628 2270.96C956.345 2271.43 954.838 2271.67 953.107 2271.67ZM955.141 2265.92C956.712 2265.92 958.075 2265.61 959.229 2264.99C960.382 2264.35 961.269 2263.52 961.889 2262.48C962.524 2261.44 962.841 2260.31 962.841 2259.08V2255.17C962.596 2255.37 962.178 2255.56 961.586 2255.73C961.01 2255.9 960.361 2256.05 959.64 2256.18C958.919 2256.31 958.205 2256.43 957.498 2256.53C956.792 2256.63 956.179 2256.72 955.66 2256.79C954.492 2256.95 953.446 2257.21 952.523 2257.57C951.601 2257.93 950.872 2258.43 950.339 2259.08C949.805 2259.72 949.538 2260.54 949.538 2261.55C949.538 2262.99 950.065 2264.08 951.117 2264.81C952.17 2265.55 953.511 2265.92 955.141 2265.92ZM978.523 2271V2237.78H986.115V2243.31H986.461C987.066 2241.4 988.105 2239.92 989.576 2238.88C991.061 2237.83 992.755 2237.3 994.659 2237.3C995.091 2237.3 995.574 2237.32 996.108 2237.37C996.656 2237.39 997.11 2237.44 997.47 2237.52V2244.72C997.139 2244.6 996.612 2244.5 995.891 2244.42C995.185 2244.32 994.5 2244.27 993.837 2244.27C992.409 2244.27 991.126 2244.58 989.986 2245.2C988.862 2245.8 987.975 2246.64 987.326 2247.73C986.677 2248.81 986.353 2250.05 986.353 2251.47V2271H978.523ZM1016.01 2271.65C1012.68 2271.65 1009.8 2270.96 1007.38 2269.57C1004.97 2268.17 1003.12 2266.2 1001.82 2263.65C1000.53 2261.08 999.877 2258.06 999.877 2254.58C999.877 2251.17 1000.53 2248.17 1001.82 2245.58C1003.14 2242.99 1004.97 2240.97 1007.32 2239.53C1009.67 2238.07 1012.43 2237.34 1015.6 2237.34C1017.65 2237.34 1019.58 2237.68 1021.4 2238.34C1023.23 2238.99 1024.84 2240 1026.24 2241.37C1027.66 2242.74 1028.77 2244.48 1029.57 2246.6C1030.38 2248.71 1030.79 2251.22 1030.79 2254.13V2256.53H1003.55V2251.25H1023.28C1023.27 2249.75 1022.94 2248.42 1022.31 2247.25C1021.67 2246.07 1020.79 2245.14 1019.65 2244.46C1018.52 2243.78 1017.21 2243.44 1015.71 2243.44C1014.11 2243.44 1012.7 2243.83 1011.49 2244.61C1010.28 2245.38 1009.34 2246.39 1008.66 2247.64C1008 2248.88 1007.66 2250.24 1007.64 2251.73V2256.33C1007.64 2258.27 1008 2259.93 1008.7 2261.31C1009.41 2262.68 1010.4 2263.73 1011.67 2264.47C1012.93 2265.19 1014.42 2265.55 1016.12 2265.55C1017.26 2265.55 1018.29 2265.39 1019.21 2265.07C1020.14 2264.74 1020.94 2264.26 1021.61 2263.62C1022.29 2262.99 1022.8 2262.2 1023.15 2261.27L1030.46 2262.09C1030 2264.02 1029.12 2265.71 1027.82 2267.15C1026.54 2268.58 1024.9 2269.69 1022.89 2270.48C1020.89 2271.26 1018.59 2271.65 1016.01 2271.65ZM1069.11 2237.78V2243.83H1050.01V2237.78H1069.11ZM1054.72 2229.82H1062.56V2261.01C1062.56 2262.06 1062.71 2262.87 1063.03 2263.43C1063.36 2263.98 1063.8 2264.35 1064.33 2264.55C1064.86 2264.76 1065.45 2264.86 1066.1 2264.86C1066.59 2264.86 1067.04 2264.82 1067.44 2264.75C1067.86 2264.68 1068.18 2264.61 1068.4 2264.55L1069.71 2270.68C1069.3 2270.82 1068.7 2270.98 1067.92 2271.15C1067.16 2271.32 1066.22 2271.43 1065.11 2271.45C1063.15 2271.51 1061.38 2271.22 1059.81 2270.57C1058.24 2269.9 1056.99 2268.88 1056.07 2267.5C1055.16 2266.11 1054.71 2264.38 1054.72 2262.3V2229.82ZM1084.2 2251.53V2271H1076.37V2226.7H1084.03V2243.42H1084.42C1085.2 2241.55 1086.4 2240.07 1088.03 2238.99C1089.67 2237.89 1091.76 2237.34 1094.3 2237.34C1096.61 2237.34 1098.62 2237.83 1100.34 2238.79C1102.05 2239.76 1103.38 2241.17 1104.32 2243.03C1105.27 2244.89 1105.74 2247.16 1105.74 2249.85V2271H1097.91V2251.06C1097.91 2248.82 1097.34 2247.08 1096.18 2245.84C1095.05 2244.59 1093.44 2243.96 1091.38 2243.96C1090 2243.96 1088.76 2244.27 1087.66 2244.87C1086.58 2245.46 1085.73 2246.32 1085.11 2247.44C1084.5 2248.57 1084.2 2249.93 1084.2 2251.53ZM1128.43 2271.65C1125.1 2271.65 1122.23 2270.96 1119.8 2269.57C1117.4 2268.17 1115.54 2266.2 1114.25 2263.65C1112.95 2261.08 1112.3 2258.06 1112.3 2254.58C1112.3 2251.17 1112.95 2248.17 1114.25 2245.58C1115.56 2242.99 1117.39 2240.97 1119.74 2239.53C1122.09 2238.07 1124.85 2237.34 1128.02 2237.34C1130.07 2237.34 1132 2237.68 1133.82 2238.34C1135.65 2238.99 1137.27 2240 1138.67 2241.37C1140.08 2242.74 1141.19 2244.48 1142 2246.6C1142.8 2248.71 1143.21 2251.22 1143.21 2254.13V2256.53H1115.98V2251.25H1135.7C1135.69 2249.75 1135.36 2248.42 1134.73 2247.25C1134.09 2246.07 1133.21 2245.14 1132.07 2244.46C1130.94 2243.78 1129.63 2243.44 1128.13 2243.44C1126.53 2243.44 1125.13 2243.83 1123.91 2244.61C1122.7 2245.38 1121.76 2246.39 1121.08 2247.64C1120.42 2248.88 1120.08 2250.24 1120.06 2251.73V2256.33C1120.06 2258.27 1120.42 2259.93 1121.12 2261.31C1121.83 2262.68 1122.82 2263.73 1124.09 2264.47C1125.36 2265.19 1126.84 2265.55 1128.54 2265.55C1129.68 2265.55 1130.71 2265.39 1131.64 2265.07C1132.56 2264.74 1133.36 2264.26 1134.04 2263.62C1134.71 2262.99 1135.23 2262.2 1135.57 2261.27L1142.88 2262.09C1142.42 2264.02 1141.54 2265.71 1140.24 2267.15C1138.96 2268.58 1137.32 2269.69 1135.31 2270.48C1133.31 2271.26 1131.02 2271.65 1128.43 2271.65ZM1179.65 2271.65C1176.32 2271.65 1173.44 2270.96 1171.02 2269.57C1168.61 2268.17 1166.76 2266.2 1165.46 2263.65C1164.16 2261.08 1163.51 2258.06 1163.51 2254.58C1163.51 2251.17 1164.16 2248.17 1165.46 2245.58C1166.77 2242.99 1168.6 2240.97 1170.95 2239.53C1173.3 2238.07 1176.07 2237.34 1179.24 2237.34C1181.29 2237.34 1183.22 2237.68 1185.03 2238.34C1186.87 2238.99 1188.48 2240 1189.88 2241.37C1191.29 2242.74 1192.4 2244.48 1193.21 2246.6C1194.02 2248.71 1194.42 2251.22 1194.42 2254.13V2256.53H1167.19V2251.25H1186.92C1186.9 2249.75 1186.58 2248.42 1185.94 2247.25C1185.31 2246.07 1184.42 2245.14 1183.28 2244.46C1182.16 2243.78 1180.85 2243.44 1179.35 2243.44C1177.75 2243.44 1176.34 2243.83 1175.13 2244.61C1173.92 2245.38 1172.97 2246.39 1172.29 2247.64C1171.63 2248.88 1171.29 2250.24 1171.28 2251.73V2256.33C1171.28 2258.27 1171.63 2259.93 1172.34 2261.31C1173.04 2262.68 1174.03 2263.73 1175.3 2264.47C1176.57 2265.19 1178.06 2265.55 1179.76 2265.55C1180.9 2265.55 1181.93 2265.39 1182.85 2265.07C1183.77 2264.74 1184.57 2264.26 1185.25 2263.62C1185.93 2262.99 1186.44 2262.2 1186.79 2261.27L1194.1 2262.09C1193.64 2264.02 1192.76 2265.71 1191.46 2267.15C1190.18 2268.58 1188.53 2269.69 1186.53 2270.48C1184.52 2271.26 1182.23 2271.65 1179.65 2271.65ZM1206.74 2237.78L1213.44 2250.04L1220.25 2237.78H1228.54L1218.52 2254.39L1228.71 2271H1220.47L1213.44 2259.04L1206.48 2271H1198.17L1208.29 2254.39L1198.43 2237.78H1206.74ZM1234.59 2283.46V2237.78H1242.29V2243.27H1242.75C1243.15 2242.46 1243.72 2241.6 1244.46 2240.7C1245.19 2239.77 1246.19 2238.99 1247.44 2238.34C1248.7 2237.68 1250.3 2237.34 1252.24 2237.34C1254.81 2237.34 1257.13 2238 1259.19 2239.31C1261.26 2240.61 1262.91 2242.53 1264.12 2245.09C1265.35 2247.63 1265.96 2250.74 1265.96 2254.43C1265.96 2258.08 1265.36 2261.18 1264.16 2263.73C1262.97 2266.28 1261.34 2268.23 1259.27 2269.57C1257.21 2270.91 1254.88 2271.58 1252.27 2271.58C1250.36 2271.58 1248.78 2271.27 1247.53 2270.63C1246.27 2270 1245.27 2269.23 1244.5 2268.34C1243.75 2267.43 1243.17 2266.57 1242.75 2265.77H1242.42V2283.46H1234.59ZM1242.27 2254.39C1242.27 2256.54 1242.58 2258.42 1243.18 2260.03C1243.8 2261.65 1244.69 2262.91 1245.84 2263.82C1247.01 2264.71 1248.42 2265.16 1250.08 2265.16C1251.81 2265.16 1253.26 2264.7 1254.43 2263.78C1255.6 2262.84 1256.48 2261.56 1257.07 2259.95C1257.67 2258.32 1257.98 2256.46 1257.98 2254.39C1257.98 2252.33 1257.68 2250.49 1257.09 2248.89C1256.5 2247.29 1255.62 2246.04 1254.45 2245.13C1253.28 2244.22 1251.83 2243.77 1250.08 2243.77C1248.41 2243.77 1246.99 2244.21 1245.82 2245.09C1244.65 2245.97 1243.77 2247.2 1243.16 2248.79C1242.57 2250.37 1242.27 2252.24 1242.27 2254.39ZM1287.37 2271.65C1284.04 2271.65 1281.16 2270.96 1278.74 2269.57C1276.33 2268.17 1274.48 2266.2 1273.18 2263.65C1271.88 2261.08 1271.24 2258.06 1271.24 2254.58C1271.24 2251.17 1271.88 2248.17 1273.18 2245.58C1274.49 2242.99 1276.33 2240.97 1278.68 2239.53C1281.03 2238.07 1283.79 2237.34 1286.96 2237.34C1289.01 2237.34 1290.94 2237.68 1292.76 2238.34C1294.59 2238.99 1296.2 2240 1297.6 2241.37C1299.02 2242.74 1300.13 2244.48 1300.93 2246.6C1301.74 2248.71 1302.14 2251.22 1302.14 2254.13V2256.53H1274.91V2251.25H1294.64C1294.62 2249.75 1294.3 2248.42 1293.67 2247.25C1293.03 2246.07 1292.14 2245.14 1291.01 2244.46C1289.88 2243.78 1288.57 2243.44 1287.07 2243.44C1285.47 2243.44 1284.06 2243.83 1282.85 2244.61C1281.64 2245.38 1280.7 2246.39 1280.02 2247.64C1279.35 2248.88 1279.02 2250.24 1279 2251.73V2256.33C1279 2258.27 1279.35 2259.93 1280.06 2261.31C1280.77 2262.68 1281.75 2263.73 1283.02 2264.47C1284.29 2265.19 1285.78 2265.55 1287.48 2265.55C1288.62 2265.55 1289.65 2265.39 1290.57 2265.07C1291.5 2264.74 1292.3 2264.26 1292.97 2263.62C1293.65 2262.99 1294.16 2262.2 1294.51 2261.27L1301.82 2262.09C1301.36 2264.02 1300.48 2265.71 1299.18 2267.15C1297.9 2268.58 1296.25 2269.69 1294.25 2270.48C1292.25 2271.26 1289.95 2271.65 1287.37 2271.65ZM1308.77 2271V2237.78H1316.36V2243.31H1316.71C1317.31 2241.4 1318.35 2239.92 1319.82 2238.88C1321.31 2237.83 1323 2237.3 1324.9 2237.3C1325.34 2237.3 1325.82 2237.32 1326.35 2237.37C1326.9 2237.39 1327.36 2237.44 1327.72 2237.52V2244.72C1327.39 2244.6 1326.86 2244.5 1326.14 2244.42C1325.43 2244.32 1324.75 2244.27 1324.08 2244.27C1322.66 2244.27 1321.37 2244.58 1320.23 2245.2C1319.11 2245.8 1318.22 2246.64 1317.57 2247.73C1316.92 2248.81 1316.6 2250.05 1316.6 2251.47V2271H1308.77ZM1332.92 2271V2237.78H1340.75V2271H1332.92ZM1336.86 2233.06C1335.62 2233.06 1334.55 2232.65 1333.65 2231.83C1332.76 2230.99 1332.31 2229.99 1332.31 2228.82C1332.31 2227.64 1332.76 2226.64 1333.65 2225.81C1334.55 2224.98 1335.62 2224.56 1336.86 2224.56C1338.11 2224.56 1339.18 2224.98 1340.06 2225.81C1340.95 2226.64 1341.4 2227.64 1341.4 2228.82C1341.4 2229.99 1340.95 2230.99 1340.06 2231.83C1339.18 2232.65 1338.11 2233.06 1336.86 2233.06ZM1363.51 2271.65C1360.18 2271.65 1357.3 2270.96 1354.88 2269.57C1352.47 2268.17 1350.62 2266.2 1349.32 2263.65C1348.02 2261.08 1347.37 2258.06 1347.37 2254.58C1347.37 2251.17 1348.02 2248.17 1349.32 2245.58C1350.63 2242.99 1352.46 2240.97 1354.81 2239.53C1357.16 2238.07 1359.93 2237.34 1363.1 2237.34C1365.15 2237.34 1367.08 2237.68 1368.89 2238.34C1370.73 2238.99 1372.34 2240 1373.74 2241.37C1375.15 2242.74 1376.26 2244.48 1377.07 2246.6C1377.88 2248.71 1378.28 2251.22 1378.28 2254.13V2256.53H1351.05V2251.25H1370.78C1370.76 2249.75 1370.44 2248.42 1369.8 2247.25C1369.17 2246.07 1368.28 2245.14 1367.14 2244.46C1366.02 2243.78 1364.71 2243.44 1363.21 2243.44C1361.61 2243.44 1360.2 2243.83 1358.99 2244.61C1357.78 2245.38 1356.83 2246.39 1356.15 2247.64C1355.49 2248.88 1355.15 2250.24 1355.14 2251.73V2256.33C1355.14 2258.27 1355.49 2259.93 1356.2 2261.31C1356.9 2262.68 1357.89 2263.73 1359.16 2264.47C1360.43 2265.19 1361.92 2265.55 1363.62 2265.55C1364.76 2265.55 1365.79 2265.39 1366.71 2265.07C1367.63 2264.74 1368.43 2264.26 1369.11 2263.62C1369.79 2262.99 1370.3 2262.2 1370.65 2261.27L1377.96 2262.09C1377.5 2264.02 1376.62 2265.71 1375.32 2267.15C1374.04 2268.58 1372.39 2269.69 1370.39 2270.48C1368.38 2271.26 1366.09 2271.65 1363.51 2271.65ZM1392.74 2251.53V2271H1384.91V2237.78H1392.39V2243.42H1392.78C1393.54 2241.56 1394.76 2240.08 1396.44 2238.99C1398.12 2237.89 1400.21 2237.34 1402.69 2237.34C1404.98 2237.34 1406.98 2237.83 1408.68 2238.81C1410.39 2239.8 1411.72 2241.22 1412.66 2243.08C1413.61 2244.94 1414.08 2247.19 1414.06 2249.85V2271H1406.23V2251.06C1406.23 2248.84 1405.66 2247.1 1404.5 2245.84C1403.36 2244.59 1401.79 2243.96 1399.77 2243.96C1398.4 2243.96 1397.18 2244.27 1396.11 2244.87C1395.06 2245.46 1394.23 2246.32 1393.62 2247.44C1393.03 2248.57 1392.74 2249.93 1392.74 2251.53ZM1436.52 2271.65C1433.2 2271.65 1430.35 2270.92 1427.97 2269.46C1425.61 2268.01 1423.78 2266 1422.5 2263.43C1421.23 2260.85 1420.6 2257.88 1420.6 2254.52C1420.6 2251.14 1421.24 2248.17 1422.54 2245.58C1423.84 2242.99 1425.67 2240.97 1428.04 2239.53C1430.42 2238.07 1433.23 2237.34 1436.47 2237.34C1439.17 2237.34 1441.56 2237.84 1443.63 2238.84C1445.72 2239.82 1447.39 2241.21 1448.63 2243.01C1449.87 2244.8 1450.58 2246.89 1450.75 2249.28H1443.26C1442.96 2247.68 1442.24 2246.35 1441.1 2245.28C1439.98 2244.2 1438.47 2243.66 1436.58 2243.66C1434.98 2243.66 1433.57 2244.09 1432.36 2244.96C1431.15 2245.81 1430.21 2247.03 1429.53 2248.63C1428.87 2250.24 1428.53 2252.15 1428.53 2254.39C1428.53 2256.65 1428.87 2258.6 1429.53 2260.23C1430.19 2261.84 1431.12 2263.09 1432.32 2263.97C1433.53 2264.84 1434.95 2265.27 1436.58 2265.27C1437.73 2265.27 1438.77 2265.05 1439.67 2264.62C1440.6 2264.17 1441.37 2263.53 1441.99 2262.69C1442.61 2261.86 1443.03 2260.84 1443.26 2259.64H1450.75C1450.56 2261.99 1449.87 2264.08 1448.67 2265.9C1447.47 2267.7 1445.85 2269.11 1443.78 2270.13C1441.72 2271.14 1439.3 2271.65 1436.52 2271.65ZM1471.89 2271.65C1468.56 2271.65 1465.68 2270.96 1463.26 2269.57C1460.85 2268.17 1458.99 2266.2 1457.7 2263.65C1456.4 2261.08 1455.75 2258.06 1455.75 2254.58C1455.75 2251.17 1456.4 2248.17 1457.7 2245.58C1459.01 2242.99 1460.84 2240.97 1463.19 2239.53C1465.54 2238.07 1468.3 2237.34 1471.48 2237.34C1473.52 2237.34 1475.45 2237.68 1477.27 2238.34C1479.1 2238.99 1480.72 2240 1482.12 2241.37C1483.53 2242.74 1484.64 2244.48 1485.45 2246.6C1486.26 2248.71 1486.66 2251.22 1486.66 2254.13V2256.53H1459.43V2251.25H1479.15C1479.14 2249.75 1478.81 2248.42 1478.18 2247.25C1477.55 2246.07 1476.66 2245.14 1475.52 2244.46C1474.4 2243.78 1473.08 2243.44 1471.58 2243.44C1469.98 2243.44 1468.58 2243.83 1467.37 2244.61C1466.15 2245.38 1465.21 2246.39 1464.53 2247.64C1463.87 2248.88 1463.53 2250.24 1463.52 2251.73V2256.33C1463.52 2258.27 1463.87 2259.93 1464.58 2261.31C1465.28 2262.68 1466.27 2263.73 1467.54 2264.47C1468.81 2265.19 1470.29 2265.55 1471.99 2265.55C1473.13 2265.55 1474.16 2265.39 1475.09 2265.07C1476.01 2264.74 1476.81 2264.26 1477.49 2263.62C1478.17 2262.99 1478.68 2262.2 1479.02 2261.27L1486.33 2262.09C1485.87 2264.02 1484.99 2265.71 1483.7 2267.15C1482.41 2268.58 1480.77 2269.69 1478.76 2270.48C1476.76 2271.26 1474.47 2271.65 1471.89 2271.65Z" fill="black"/>
<path d="M421 1781C504.947 1781 573 1849.05 573 1933C573 2016.95 504.947 2085 421 2085C337.052 2085 269 2016.95 269 1933C269 1849.05 337.052 1781 421 1781ZM503.945 1966.7C502.947 1959.25 496.253 1955.06 489.24 1957.5C485.56 1958.78 485.398 1958.97 479.71 1968.71C470.147 1985.08 454.15 1996.71 435.038 2001.17C427.679 2002.89 412.671 2002.9 405.395 2001.19C393.886 1998.48 381.413 1991.89 372.849 1984.01C368.45 1979.96 361.816 1971.03 358.876 1965.2C356.267 1960.03 353.644 1957.9 349.133 1957.29C343.103 1956.48 337.057 1961.98 337.056 1968.26C337.056 1969.62 338.472 1973.46 340.201 1976.81C347.94 1991.77 359.911 2004.12 375.412 2013.11C419.559 2038.72 478.277 2021.33 501.388 1975.8C503.829 1970.99 504.298 1969.33 503.945 1966.7ZM437.167 1842.85C430.953 1841.57 415.742 1840.57 412.139 1841.19C411.029 1841.38 407.395 1841.94 404.065 1842.43C377.906 1846.27 352.032 1864.6 339.926 1887.85C336.748 1893.95 336.499 1895.75 338.245 1899.93C339.844 1903.76 343.9 1906.17 348.751 1906.17C352.153 1906.17 352.916 1905.82 355.518 1903.06C357.13 1901.35 359.722 1897.84 361.276 1895.25C369.586 1881.42 384.966 1870.27 402.047 1865.68C410.724 1863.35 425.289 1863.14 434.134 1865.22C454.905 1870.1 471.634 1883.18 480.807 1901.73C485.544 1911.31 487.967 1919.75 486.287 1920.81C485.691 1921.19 452.185 1921.5 411.831 1921.51C398.049 1921.51 386.855 1921.52 377.744 1921.53C373.128 1916.2 365.385 1912.71 356.611 1912.71C344.83 1912.71 334.908 1919.01 331.92 1927.58C331.242 1929.1 330.944 1930.76 331.008 1932.42C331.002 1932.61 331 1932.8 331 1932.99C331 1944.18 342.466 1953.26 356.611 1953.26C366.016 1953.26 374.236 1949.25 378.689 1943.26C426.856 1943.56 500.952 1943.3 503.114 1942.48C509.517 1940.05 511.184 1935.39 509.853 1923.61C505.229 1882.65 476.706 1850.96 437.167 1842.85Z" fill="black"/>
<path d="M179.856 2185V2140.7H208.667V2147.43H187.88V2159.46H207.174V2166.18H187.88V2178.27H208.84V2185H179.856ZM226.068 2185.67C223.963 2185.67 222.066 2185.3 220.379 2184.55C218.707 2183.78 217.38 2182.66 216.399 2181.17C215.433 2179.69 214.95 2177.85 214.95 2175.68C214.95 2173.8 215.296 2172.25 215.988 2171.03C216.681 2169.8 217.625 2168.82 218.822 2168.09C220.019 2167.35 221.367 2166.79 222.867 2166.42C224.381 2166.03 225.945 2165.75 227.56 2165.58C229.507 2165.37 231.086 2165.19 232.297 2165.04C233.509 2164.86 234.388 2164.6 234.936 2164.26C235.499 2163.9 235.78 2163.34 235.78 2162.59V2162.46C235.78 2160.83 235.297 2159.57 234.331 2158.68C233.365 2157.78 231.973 2157.34 230.156 2157.34C228.238 2157.34 226.717 2157.75 225.592 2158.59C224.482 2159.43 223.732 2160.41 223.343 2161.55L216.032 2160.51C216.608 2158.5 217.56 2156.81 218.887 2155.45C220.213 2154.08 221.836 2153.06 223.754 2152.38C225.671 2151.69 227.791 2151.34 230.113 2151.34C231.713 2151.34 233.307 2151.53 234.893 2151.91C236.479 2152.28 237.928 2152.9 239.241 2153.77C240.553 2154.62 241.606 2155.78 242.399 2157.25C243.206 2158.72 243.61 2160.56 243.61 2162.76V2185H236.083V2180.44H235.823C235.347 2181.36 234.677 2182.22 233.812 2183.03C232.961 2183.82 231.886 2184.47 230.589 2184.96C229.305 2185.43 227.798 2185.67 226.068 2185.67ZM228.101 2179.92C229.673 2179.92 231.036 2179.61 232.189 2178.99C233.343 2178.35 234.23 2177.52 234.85 2176.48C235.484 2175.44 235.801 2174.31 235.801 2173.08V2169.17C235.556 2169.37 235.138 2169.56 234.547 2169.73C233.97 2169.9 233.321 2170.05 232.6 2170.18C231.879 2170.31 231.165 2170.43 230.459 2170.53C229.752 2170.63 229.139 2170.72 228.62 2170.79C227.452 2170.95 226.407 2171.21 225.484 2171.57C224.561 2171.93 223.833 2172.43 223.299 2173.08C222.766 2173.72 222.499 2174.54 222.499 2175.55C222.499 2176.99 223.025 2178.08 224.078 2178.81C225.131 2179.55 226.472 2179.92 228.101 2179.92ZM251.483 2185V2151.78H259.075V2157.31H259.421C260.027 2155.4 261.065 2153.92 262.536 2152.88C264.021 2151.83 265.716 2151.3 267.619 2151.3C268.052 2151.3 268.535 2151.32 269.068 2151.37C269.616 2151.39 270.071 2151.44 270.431 2151.52V2158.72C270.099 2158.6 269.573 2158.5 268.852 2158.42C268.146 2158.32 267.461 2158.27 266.797 2158.27C265.37 2158.27 264.086 2158.58 262.947 2159.2C261.822 2159.8 260.936 2160.64 260.287 2161.73C259.638 2162.81 259.313 2164.05 259.313 2165.47V2185H251.483ZM283.463 2165.53V2185H275.633V2151.78H283.117V2157.42H283.506C284.271 2155.56 285.489 2154.08 287.162 2152.99C288.849 2151.89 290.933 2151.34 293.413 2151.34C295.706 2151.34 297.703 2151.83 299.404 2152.81C301.12 2153.8 302.447 2155.22 303.384 2157.08C304.336 2158.94 304.805 2161.19 304.79 2163.85V2185H296.96V2165.06C296.96 2162.84 296.383 2161.1 295.23 2159.84C294.091 2158.59 292.512 2157.96 290.493 2157.96C289.123 2157.96 287.904 2158.27 286.837 2158.87C285.785 2159.46 284.956 2160.32 284.35 2161.44C283.759 2162.57 283.463 2163.93 283.463 2165.53ZM328.205 2185V2140.7H357.016V2147.43H336.229V2159.46H355.523V2166.18H336.229V2178.27H357.189V2185H328.205ZM374.417 2185.67C372.312 2185.67 370.416 2185.3 368.728 2184.55C367.056 2183.78 365.729 2182.66 364.749 2181.17C363.782 2179.69 363.299 2177.85 363.299 2175.68C363.299 2173.8 363.645 2172.25 364.338 2171.03C365.03 2169.8 365.974 2168.82 367.171 2168.09C368.368 2167.35 369.716 2166.79 371.216 2166.42C372.73 2166.03 374.295 2165.75 375.91 2165.58C377.856 2165.37 379.435 2165.19 380.647 2165.04C381.858 2164.86 382.738 2164.6 383.285 2164.26C383.848 2163.9 384.129 2163.34 384.129 2162.59V2162.46C384.129 2160.83 383.646 2159.57 382.68 2158.68C381.714 2157.78 380.322 2157.34 378.505 2157.34C376.587 2157.34 375.066 2157.75 373.941 2158.59C372.831 2159.43 372.081 2160.41 371.692 2161.55L364.381 2160.51C364.958 2158.5 365.909 2156.81 367.236 2155.45C368.563 2154.08 370.185 2153.06 372.103 2152.38C374.021 2151.69 376.14 2151.34 378.462 2151.34C380.063 2151.34 381.656 2151.53 383.242 2151.91C384.828 2152.28 386.278 2152.9 387.59 2153.77C388.902 2154.62 389.955 2155.78 390.748 2157.25C391.555 2158.72 391.959 2160.56 391.959 2162.76V2185H384.432V2180.44H384.172C383.696 2181.36 383.026 2182.22 382.161 2183.03C381.31 2183.82 380.236 2184.47 378.938 2184.96C377.654 2185.43 376.148 2185.67 374.417 2185.67ZM376.45 2179.92C378.022 2179.92 379.385 2179.61 380.538 2178.99C381.692 2178.35 382.579 2177.52 383.199 2176.48C383.833 2175.44 384.151 2174.31 384.151 2173.08V2169.17C383.906 2169.37 383.487 2169.56 382.896 2169.73C382.319 2169.9 381.67 2170.05 380.949 2170.18C380.228 2170.31 379.515 2170.43 378.808 2170.53C378.101 2170.63 377.489 2170.72 376.97 2170.79C375.801 2170.95 374.756 2171.21 373.833 2171.57C372.91 2171.93 372.182 2172.43 371.649 2173.08C371.115 2173.72 370.848 2174.54 370.848 2175.55C370.848 2176.99 371.375 2178.08 372.427 2178.81C373.48 2179.55 374.821 2179.92 376.45 2179.92ZM416.423 2151.78V2157.83H397.323V2151.78H416.423ZM402.039 2143.82H409.869V2175.01C409.869 2176.06 410.027 2176.87 410.345 2177.43C410.676 2177.98 411.109 2178.35 411.642 2178.55C412.176 2178.76 412.767 2178.86 413.416 2178.86C413.906 2178.86 414.353 2178.82 414.757 2178.75C415.175 2178.68 415.492 2178.61 415.709 2178.55L417.028 2184.68C416.61 2184.82 416.012 2184.98 415.233 2185.15C414.469 2185.32 413.531 2185.43 412.421 2185.45C410.46 2185.51 408.693 2185.22 407.122 2184.57C405.55 2183.9 404.303 2182.88 403.38 2181.5C402.471 2180.11 402.024 2178.38 402.039 2176.3V2143.82ZM437.106 2185.65C433.79 2185.65 430.942 2184.92 428.562 2183.46C426.197 2182.01 424.373 2180 423.09 2177.43C421.821 2174.85 421.187 2171.88 421.187 2168.52C421.187 2165.14 421.835 2162.17 423.133 2159.58C424.431 2156.99 426.262 2154.97 428.627 2153.53C431.007 2152.07 433.818 2151.34 437.063 2151.34C439.759 2151.34 442.146 2151.84 444.222 2152.84C446.313 2153.82 447.979 2155.21 449.219 2157.01C450.459 2158.8 451.166 2160.89 451.339 2163.28H443.855C443.552 2161.68 442.831 2160.35 441.692 2159.28C440.567 2158.2 439.06 2157.66 437.171 2157.66C435.57 2157.66 434.165 2158.09 432.953 2158.96C431.742 2159.81 430.797 2161.03 430.12 2162.63C429.456 2164.24 429.125 2166.15 429.125 2168.39C429.125 2170.65 429.456 2172.6 430.12 2174.23C430.783 2175.84 431.713 2177.09 432.91 2177.97C434.121 2178.84 435.542 2179.27 437.171 2179.27C438.325 2179.27 439.356 2179.05 440.264 2178.62C441.187 2178.17 441.959 2177.53 442.579 2176.69C443.199 2175.86 443.624 2174.84 443.855 2173.64H451.339C451.151 2175.99 450.459 2178.08 449.262 2179.9C448.065 2181.7 446.436 2183.11 444.374 2184.13C442.312 2185.14 439.889 2185.65 437.106 2185.65ZM472.26 2185.65C469.016 2185.65 466.204 2184.94 463.825 2183.51C461.445 2182.08 459.6 2180.08 458.287 2177.52C456.99 2174.95 456.341 2171.95 456.341 2168.52C456.341 2165.09 456.99 2162.08 458.287 2159.5C459.6 2156.92 461.445 2154.91 463.825 2153.49C466.204 2152.06 469.016 2151.34 472.26 2151.34C475.505 2151.34 478.317 2152.06 480.696 2153.49C483.075 2154.91 484.914 2156.92 486.212 2159.5C487.524 2162.08 488.18 2165.09 488.18 2168.52C488.18 2171.95 487.524 2174.95 486.212 2177.52C484.914 2180.08 483.075 2182.08 480.696 2183.51C478.317 2184.94 475.505 2185.65 472.26 2185.65ZM472.304 2179.38C474.063 2179.38 475.534 2178.89 476.716 2177.93C477.899 2176.95 478.778 2175.63 479.355 2173.99C479.946 2172.35 480.242 2170.52 480.242 2168.5C480.242 2166.46 479.946 2164.62 479.355 2162.98C478.778 2161.32 477.899 2160 476.716 2159.02C475.534 2158.04 474.063 2157.55 472.304 2157.55C470.501 2157.55 469.001 2158.04 467.805 2159.02C466.622 2160 465.735 2161.32 465.144 2162.98C464.567 2164.62 464.279 2166.46 464.279 2168.5C464.279 2170.52 464.567 2172.35 465.144 2173.99C465.735 2175.63 466.622 2176.95 467.805 2177.93C469.001 2178.89 470.501 2179.38 472.304 2179.38ZM494.826 2185V2151.78H502.656V2185H494.826ZM498.762 2147.06C497.522 2147.06 496.455 2146.65 495.561 2145.83C494.667 2144.99 494.22 2143.99 494.22 2142.82C494.22 2141.64 494.667 2140.64 495.561 2139.81C496.455 2138.98 497.522 2138.56 498.762 2138.56C500.017 2138.56 501.084 2138.98 501.964 2139.81C502.858 2140.64 503.305 2141.64 503.305 2142.82C503.305 2143.99 502.858 2144.99 501.964 2145.83C501.084 2146.65 500.017 2147.06 498.762 2147.06ZM518.538 2165.53V2185H510.708V2151.78H518.192V2157.42H518.581C519.345 2155.56 520.564 2154.08 522.236 2152.99C523.924 2151.89 526.007 2151.34 528.487 2151.34C530.78 2151.34 532.777 2151.83 534.479 2152.81C536.195 2153.8 537.522 2155.22 538.459 2157.08C539.411 2158.94 539.879 2161.19 539.865 2163.85V2185H532.035V2165.06C532.035 2162.84 531.458 2161.1 530.304 2159.84C529.165 2158.59 527.586 2157.96 525.567 2157.96C524.198 2157.96 522.979 2158.27 521.912 2158.87C520.859 2159.46 520.03 2160.32 519.425 2161.44C518.833 2162.57 518.538 2163.93 518.538 2165.53ZM574.083 2160.56L566.946 2161.34C566.744 2160.62 566.39 2159.94 565.886 2159.3C565.395 2158.67 564.732 2158.16 563.896 2157.77C563.059 2157.38 562.036 2157.18 560.824 2157.18C559.195 2157.18 557.825 2157.54 556.715 2158.24C555.619 2158.95 555.078 2159.87 555.092 2160.99C555.078 2161.96 555.431 2162.74 556.152 2163.35C556.888 2163.95 558.099 2164.45 559.786 2164.84L565.453 2166.05C568.597 2166.73 570.933 2167.8 572.461 2169.28C574.004 2170.75 574.783 2172.67 574.797 2175.05C574.783 2177.14 574.17 2178.99 572.959 2180.59C571.762 2182.17 570.096 2183.41 567.962 2184.31C565.828 2185.2 563.377 2185.65 560.608 2185.65C556.542 2185.65 553.268 2184.8 550.788 2183.1C548.308 2181.38 546.83 2178.99 546.354 2175.94L553.989 2175.2C554.335 2176.7 555.071 2177.83 556.195 2178.6C557.32 2179.36 558.784 2179.74 560.586 2179.74C562.446 2179.74 563.939 2179.36 565.064 2178.6C566.203 2177.83 566.772 2176.89 566.772 2175.76C566.772 2174.81 566.405 2174.03 565.669 2173.41C564.948 2172.79 563.824 2172.31 562.295 2171.98L556.628 2170.79C553.441 2170.13 551.084 2169.01 549.555 2167.44C548.027 2165.85 547.269 2163.85 547.284 2161.42C547.269 2159.38 547.825 2157.6 548.949 2156.1C550.089 2154.59 551.668 2153.42 553.686 2152.6C555.72 2151.76 558.063 2151.34 560.716 2151.34C564.609 2151.34 567.674 2152.17 569.909 2153.83C572.158 2155.49 573.55 2157.73 574.083 2160.56ZM610.854 2185.65C607.61 2185.65 604.798 2184.94 602.419 2183.51C600.039 2182.08 598.194 2180.08 596.881 2177.52C595.584 2174.95 594.935 2171.95 594.935 2168.52C594.935 2165.09 595.584 2162.08 596.881 2159.5C598.194 2156.92 600.039 2154.91 602.419 2153.49C604.798 2152.06 607.61 2151.34 610.854 2151.34C614.099 2151.34 616.911 2152.06 619.29 2153.49C621.669 2154.91 623.508 2156.92 624.806 2159.5C626.118 2162.08 626.774 2165.09 626.774 2168.52C626.774 2171.95 626.118 2174.95 624.806 2177.52C623.508 2180.08 621.669 2182.08 619.29 2183.51C616.911 2184.94 614.099 2185.65 610.854 2185.65ZM610.898 2179.38C612.657 2179.38 614.128 2178.89 615.31 2177.93C616.493 2176.95 617.372 2175.63 617.949 2173.99C618.54 2172.35 618.836 2170.52 618.836 2168.5C618.836 2166.46 618.54 2164.62 617.949 2162.98C617.372 2161.32 616.493 2160 615.31 2159.02C614.128 2158.04 612.657 2157.55 610.898 2157.55C609.095 2157.55 607.595 2158.04 606.399 2159.02C605.216 2160 604.329 2161.32 603.738 2162.98C603.161 2164.62 602.873 2166.46 602.873 2168.5C602.873 2170.52 603.161 2172.35 603.738 2173.99C604.329 2175.63 605.216 2176.95 606.399 2177.93C607.595 2178.89 609.095 2179.38 610.898 2179.38ZM641.25 2165.53V2185H633.42V2151.78H640.904V2157.42H641.293C642.057 2155.56 643.276 2154.08 644.949 2152.99C646.636 2151.89 648.719 2151.34 651.2 2151.34C653.492 2151.34 655.49 2151.83 657.191 2152.81C658.907 2153.8 660.234 2155.22 661.171 2157.08C662.123 2158.94 662.591 2161.19 662.577 2163.85V2185H654.747V2165.06C654.747 2162.84 654.17 2161.1 653.017 2159.84C651.877 2158.59 650.298 2157.96 648.28 2157.96C646.91 2157.96 645.691 2158.27 644.624 2158.87C643.572 2159.46 642.742 2160.32 642.137 2161.44C641.546 2162.57 641.25 2163.93 641.25 2165.53ZM142.944 2271.65C139.613 2271.65 136.736 2270.96 134.314 2269.57C131.906 2268.17 130.053 2266.2 128.755 2263.65C127.457 2261.08 126.808 2258.06 126.808 2254.58C126.808 2251.17 127.457 2248.17 128.755 2245.58C130.067 2242.99 131.898 2240.97 134.249 2239.53C136.599 2238.07 139.361 2237.34 142.533 2237.34C144.581 2237.34 146.513 2237.68 148.33 2238.34C150.161 2238.99 151.776 2240 153.175 2241.37C154.588 2242.74 155.698 2244.48 156.506 2246.6C157.314 2248.71 157.717 2251.22 157.717 2254.13V2256.53H130.485V2251.25H150.212C150.197 2249.75 149.873 2248.42 149.238 2247.25C148.604 2246.07 147.717 2245.14 146.578 2244.46C145.453 2243.78 144.141 2243.44 142.641 2243.44C141.041 2243.44 139.635 2243.83 138.423 2244.61C137.212 2245.38 136.268 2246.39 135.59 2247.64C134.927 2248.88 134.588 2250.24 134.573 2251.73V2256.33C134.573 2258.27 134.927 2259.93 135.633 2261.31C136.34 2262.68 137.327 2263.73 138.596 2264.47C139.865 2265.19 141.351 2265.55 143.052 2265.55C144.191 2265.55 145.222 2265.39 146.145 2265.07C147.068 2264.74 147.868 2264.26 148.546 2263.62C149.224 2262.99 149.736 2262.2 150.082 2261.27L157.393 2262.09C156.931 2264.02 156.052 2265.71 154.754 2267.15C153.471 2268.58 151.827 2269.69 149.822 2270.48C147.818 2271.26 145.525 2271.65 142.944 2271.65ZM193.066 2237.78L181.234 2271H172.582L160.751 2237.78H169.1L176.735 2262.46H177.082L184.739 2237.78H193.066ZM212.063 2271.65C208.732 2271.65 205.855 2270.96 203.432 2269.57C201.024 2268.17 199.171 2266.2 197.873 2263.65C196.576 2261.08 195.927 2258.06 195.927 2254.58C195.927 2251.17 196.576 2248.17 197.873 2245.58C199.186 2242.99 201.017 2240.97 203.367 2239.53C205.718 2238.07 208.479 2237.34 211.652 2237.34C213.699 2237.34 215.632 2237.68 217.448 2238.34C219.28 2238.99 220.895 2240 222.294 2241.37C223.707 2242.74 224.817 2244.48 225.625 2246.6C226.432 2248.71 226.836 2251.22 226.836 2254.13V2256.53H199.604V2251.25H219.33C219.316 2249.75 218.991 2248.42 218.357 2247.25C217.722 2246.07 216.836 2245.14 215.696 2244.46C214.572 2243.78 213.259 2243.44 211.76 2243.44C210.159 2243.44 208.753 2243.83 207.542 2244.61C206.331 2245.38 205.386 2246.39 204.708 2247.64C204.045 2248.88 203.706 2250.24 203.692 2251.73V2256.33C203.692 2258.27 204.045 2259.93 204.752 2261.31C205.458 2262.68 206.446 2263.73 207.715 2264.47C208.984 2265.19 210.469 2265.55 212.171 2265.55C213.31 2265.55 214.341 2265.39 215.264 2265.07C216.187 2264.74 216.987 2264.26 217.665 2263.62C218.342 2262.99 218.854 2262.2 219.2 2261.27L226.511 2262.09C226.05 2264.02 225.17 2265.71 223.873 2267.15C222.589 2268.58 220.945 2269.69 218.941 2270.48C216.937 2271.26 214.644 2271.65 212.063 2271.65ZM233.46 2271V2237.78H241.052V2243.31H241.398C242.004 2241.4 243.042 2239.92 244.513 2238.88C245.998 2237.83 247.693 2237.3 249.596 2237.3C250.029 2237.3 250.512 2237.32 251.045 2237.37C251.593 2237.39 252.047 2237.44 252.408 2237.52V2244.72C252.076 2244.6 251.55 2244.5 250.829 2244.42C250.122 2244.32 249.437 2244.27 248.774 2244.27C247.346 2244.27 246.063 2244.58 244.924 2245.2C243.799 2245.8 242.912 2246.64 242.263 2247.73C241.615 2248.81 241.29 2250.05 241.29 2251.47V2271H233.46ZM263.488 2283.46C262.421 2283.46 261.433 2283.37 260.525 2283.2C259.631 2283.04 258.917 2282.85 258.383 2282.64L260.2 2276.54C261.339 2276.87 262.356 2277.03 263.25 2277.01C264.144 2277 264.93 2276.72 265.608 2276.17C266.3 2275.64 266.884 2274.74 267.36 2273.49L268.03 2271.69L255.982 2237.78H264.288L271.945 2262.87H272.291L279.97 2237.78H288.297L274.995 2275.02C274.375 2276.78 273.553 2278.29 272.529 2279.54C271.505 2280.81 270.251 2281.78 268.766 2282.44C267.295 2283.12 265.535 2283.46 263.488 2283.46ZM323.316 2271.65C320.072 2271.65 317.26 2270.94 314.881 2269.51C312.501 2268.08 310.656 2266.08 309.343 2263.52C308.046 2260.95 307.397 2257.95 307.397 2254.52C307.397 2251.09 308.046 2248.08 309.343 2245.5C310.656 2242.92 312.501 2240.91 314.881 2239.49C317.26 2238.06 320.072 2237.34 323.316 2237.34C326.561 2237.34 329.373 2238.06 331.752 2239.49C334.131 2240.91 335.97 2242.92 337.268 2245.5C338.58 2248.08 339.236 2251.09 339.236 2254.52C339.236 2257.95 338.58 2260.95 337.268 2263.52C335.97 2266.08 334.131 2268.08 331.752 2269.51C329.373 2270.94 326.561 2271.65 323.316 2271.65ZM323.36 2265.38C325.119 2265.38 326.59 2264.89 327.772 2263.93C328.955 2262.95 329.834 2261.63 330.411 2259.99C331.002 2258.35 331.298 2256.52 331.298 2254.5C331.298 2252.46 331.002 2250.62 330.411 2248.98C329.834 2247.32 328.955 2246 327.772 2245.02C326.59 2244.04 325.119 2243.55 323.36 2243.55C321.557 2243.55 320.057 2244.04 318.861 2245.02C317.678 2246 316.791 2247.32 316.2 2248.98C315.623 2250.62 315.335 2252.46 315.335 2254.5C315.335 2256.52 315.623 2258.35 316.2 2259.99C316.791 2261.63 317.678 2262.95 318.861 2263.93C320.057 2264.89 321.557 2265.38 323.36 2265.38ZM345.882 2271V2237.78H353.474V2243.31H353.82C354.426 2241.4 355.464 2239.92 356.935 2238.88C358.42 2237.83 360.114 2237.3 362.018 2237.3C362.45 2237.3 362.933 2237.32 363.467 2237.37C364.015 2237.39 364.469 2237.44 364.83 2237.52V2244.72C364.498 2244.6 363.972 2244.5 363.251 2244.42C362.544 2244.32 361.859 2244.27 361.196 2244.27C359.768 2244.27 358.485 2244.58 357.346 2245.2C356.221 2245.8 355.334 2246.64 354.685 2247.73C354.036 2248.81 353.712 2250.05 353.712 2251.47V2271H345.882ZM380.993 2271.58C378.383 2271.58 376.047 2270.91 373.985 2269.57C371.923 2268.23 370.293 2266.28 369.096 2263.73C367.899 2261.18 367.301 2258.08 367.301 2254.43C367.301 2250.74 367.907 2247.63 369.118 2245.09C370.344 2242.53 371.995 2240.61 374.071 2239.31C376.148 2238 378.462 2237.34 381.014 2237.34C382.961 2237.34 384.562 2237.68 385.816 2238.34C387.071 2238.99 388.066 2239.77 388.801 2240.7C389.537 2241.6 390.106 2242.46 390.51 2243.27H390.834V2226.7H398.686V2271H390.986V2265.77H390.51C390.106 2266.57 389.522 2267.43 388.758 2268.34C387.994 2269.23 386.984 2270 385.73 2270.63C384.475 2271.27 382.896 2271.58 380.993 2271.58ZM383.177 2265.16C384.836 2265.16 386.249 2264.71 387.417 2263.82C388.585 2262.91 389.472 2261.65 390.077 2260.03C390.683 2258.42 390.986 2256.54 390.986 2254.39C390.986 2252.24 390.683 2250.37 390.077 2248.79C389.486 2247.2 388.606 2245.97 387.438 2245.09C386.285 2244.21 384.864 2243.77 383.177 2243.77C381.432 2243.77 379.976 2244.22 378.808 2245.13C377.64 2246.04 376.76 2247.29 376.169 2248.89C375.578 2250.49 375.282 2252.33 375.282 2254.39C375.282 2256.46 375.578 2258.32 376.169 2259.95C376.775 2261.56 377.662 2262.84 378.83 2263.78C380.012 2264.7 381.461 2265.16 383.177 2265.16ZM421.738 2271.65C418.407 2271.65 415.53 2270.96 413.108 2269.57C410.7 2268.17 408.847 2266.2 407.549 2263.65C406.251 2261.08 405.602 2258.06 405.602 2254.58C405.602 2251.17 406.251 2248.17 407.549 2245.58C408.861 2242.99 410.692 2240.97 413.043 2239.53C415.393 2238.07 418.155 2237.34 421.327 2237.34C423.375 2237.34 425.307 2237.68 427.124 2238.34C428.955 2238.99 430.57 2240 431.969 2241.37C433.382 2242.74 434.493 2244.48 435.3 2246.6C436.108 2248.71 436.511 2251.22 436.511 2254.13V2256.53H409.279V2251.25H429.006C428.991 2249.75 428.667 2248.42 428.032 2247.25C427.398 2246.07 426.511 2245.14 425.372 2244.46C424.247 2243.78 422.935 2243.44 421.435 2243.44C419.835 2243.44 418.429 2243.83 417.217 2244.61C416.006 2245.38 415.062 2246.39 414.384 2247.64C413.721 2248.88 413.382 2250.24 413.367 2251.73V2256.33C413.367 2258.27 413.721 2259.93 414.427 2261.31C415.134 2262.68 416.122 2263.73 417.39 2264.47C418.659 2265.19 420.145 2265.55 421.846 2265.55C422.985 2265.55 424.016 2265.39 424.939 2265.07C425.862 2264.74 426.663 2264.26 427.34 2263.62C428.018 2262.99 428.53 2262.2 428.876 2261.27L436.187 2262.09C435.725 2264.02 434.846 2265.71 433.548 2267.15C432.265 2268.58 430.621 2269.69 428.616 2270.48C426.612 2271.26 424.319 2271.65 421.738 2271.65ZM443.136 2271V2237.78H450.728V2243.31H451.074C451.679 2241.4 452.718 2239.92 454.188 2238.88C455.674 2237.83 457.368 2237.3 459.272 2237.3C459.704 2237.3 460.187 2237.32 460.721 2237.37C461.269 2237.39 461.723 2237.44 462.083 2237.52V2244.72C461.752 2244.6 461.225 2244.5 460.504 2244.42C459.798 2244.32 459.113 2244.27 458.45 2244.27C457.022 2244.27 455.739 2244.58 454.599 2245.2C453.475 2245.8 452.588 2246.64 451.939 2247.73C451.29 2248.81 450.966 2250.05 450.966 2251.47V2271H443.136ZM499.222 2237.78V2243.83H479.582V2237.78H499.222ZM484.492 2271V2234.64C484.492 2232.4 484.954 2230.54 485.876 2229.06C486.814 2227.57 488.068 2226.46 489.64 2225.73C491.212 2224.99 492.957 2224.63 494.874 2224.63C496.23 2224.63 497.434 2224.73 498.487 2224.95C499.539 2225.17 500.318 2225.36 500.823 2225.53L499.265 2231.59C498.934 2231.49 498.516 2231.39 498.011 2231.29C497.506 2231.17 496.944 2231.11 496.324 2231.11C494.867 2231.11 493.836 2231.47 493.231 2232.17C492.639 2232.87 492.344 2233.86 492.344 2235.16V2271H484.492ZM505.354 2271V2237.78H512.946V2243.31H513.292C513.898 2241.4 514.936 2239.92 516.407 2238.88C517.892 2237.83 519.587 2237.3 521.49 2237.3C521.923 2237.3 522.406 2237.32 522.939 2237.37C523.487 2237.39 523.942 2237.44 524.302 2237.52V2244.72C523.97 2244.6 523.444 2244.5 522.723 2244.42C522.016 2244.32 521.332 2244.27 520.668 2244.27C519.241 2244.27 517.957 2244.58 516.818 2245.2C515.693 2245.8 514.806 2246.64 514.158 2247.73C513.509 2248.81 513.184 2250.05 513.184 2251.47V2271H505.354ZM542.628 2271.65C539.384 2271.65 536.572 2270.94 534.192 2269.51C531.813 2268.08 529.967 2266.08 528.655 2263.52C527.357 2260.95 526.708 2257.95 526.708 2254.52C526.708 2251.09 527.357 2248.08 528.655 2245.5C529.967 2242.92 531.813 2240.91 534.192 2239.49C536.572 2238.06 539.384 2237.34 542.628 2237.34C545.873 2237.34 548.684 2238.06 551.064 2239.49C553.443 2240.91 555.282 2242.92 556.579 2245.5C557.892 2248.08 558.548 2251.09 558.548 2254.52C558.548 2257.95 557.892 2260.95 556.579 2263.52C555.282 2266.08 553.443 2268.08 551.064 2269.51C548.684 2270.94 545.873 2271.65 542.628 2271.65ZM542.671 2265.38C544.431 2265.38 545.901 2264.89 547.084 2263.93C548.266 2262.95 549.146 2261.63 549.723 2259.99C550.314 2258.35 550.61 2256.52 550.61 2254.5C550.61 2252.46 550.314 2250.62 549.723 2248.98C549.146 2247.32 548.266 2246 547.084 2245.02C545.901 2244.04 544.431 2243.55 542.671 2243.55C540.869 2243.55 539.369 2244.04 538.172 2245.02C536.99 2246 536.103 2247.32 535.512 2248.98C534.935 2250.62 534.647 2252.46 534.647 2254.5C534.647 2256.52 534.935 2258.35 535.512 2259.99C536.103 2261.63 536.99 2262.95 538.172 2263.93C539.369 2264.89 540.869 2265.38 542.671 2265.38ZM565.193 2271V2237.78H572.677V2243.42H573.067C573.759 2241.52 574.905 2240.03 576.506 2238.97C578.107 2237.88 580.017 2237.34 582.238 2237.34C584.487 2237.34 586.384 2237.89 587.927 2238.99C589.484 2240.07 590.58 2241.55 591.214 2243.42H591.56C592.296 2241.58 593.536 2240.11 595.281 2239.01C597.04 2237.9 599.124 2237.34 601.532 2237.34C604.589 2237.34 607.084 2238.31 609.016 2240.24C610.948 2242.17 611.914 2244.99 611.914 2248.7V2271H604.063V2249.91C604.063 2247.85 603.515 2246.34 602.419 2245.39C601.323 2244.42 599.982 2243.94 598.395 2243.94C596.506 2243.94 595.028 2244.53 593.961 2245.71C592.909 2246.88 592.382 2248.4 592.382 2250.28V2271H584.704V2249.59C584.704 2247.87 584.185 2246.5 583.146 2245.48C582.123 2244.45 580.781 2243.94 579.123 2243.94C577.998 2243.94 576.975 2244.23 576.052 2244.81C575.129 2245.37 574.393 2246.17 573.845 2247.21C573.298 2248.23 573.024 2249.43 573.024 2250.8V2271H565.193ZM651.816 2256.12H659.084L663.388 2261.7L666.46 2265.33L673.835 2274.81H666.049L661.031 2268.45L658.889 2265.42L651.816 2256.12ZM674.895 2248.85C674.895 2253.62 674.001 2257.71 672.213 2261.12C670.44 2264.5 668.017 2267.1 664.946 2268.9C661.889 2270.7 658.421 2271.61 654.542 2271.61C650.663 2271.61 647.187 2270.7 644.116 2268.9C641.059 2267.08 638.636 2264.48 636.848 2261.09C635.075 2257.69 634.188 2253.61 634.188 2248.85C634.188 2244.08 635.075 2240 636.848 2236.61C638.636 2233.21 641.059 2230.6 644.116 2228.8C647.187 2227 650.663 2226.1 654.542 2226.1C658.421 2226.1 661.889 2227 664.946 2228.8C668.017 2230.6 670.44 2233.21 672.213 2236.61C674.001 2240 674.895 2244.08 674.895 2248.85ZM666.827 2248.85C666.827 2245.49 666.301 2242.66 665.248 2240.35C664.21 2238.03 662.768 2236.28 660.922 2235.09C659.077 2233.9 656.95 2233.3 654.542 2233.3C652.133 2233.3 650.006 2233.9 648.161 2235.09C646.315 2236.28 644.866 2238.03 643.813 2240.35C642.775 2242.66 642.256 2245.49 642.256 2248.85C642.256 2252.21 642.775 2255.05 643.813 2257.37C644.866 2259.68 646.315 2261.43 648.161 2262.63C650.006 2263.81 652.133 2264.4 654.542 2264.4C656.95 2264.4 659.077 2263.81 660.922 2262.63C662.768 2261.43 664.21 2259.68 665.248 2257.37C666.301 2255.05 666.827 2252.21 666.827 2248.85ZM682.541 2271V2226.7H699.153C702.556 2226.7 705.412 2227.29 707.719 2228.48C710.04 2229.66 711.792 2231.32 712.975 2233.45C714.172 2235.57 714.77 2238.04 714.77 2240.87C714.77 2243.71 714.165 2246.18 712.953 2248.27C711.756 2250.34 709.99 2251.95 707.654 2253.09C705.318 2254.22 702.448 2254.78 699.045 2254.78H687.214V2248.12H697.964C699.954 2248.12 701.583 2247.84 702.852 2247.29C704.121 2246.73 705.058 2245.92 705.664 2244.85C706.284 2243.77 706.594 2242.44 706.594 2240.87C706.594 2239.3 706.284 2237.96 705.664 2236.85C705.044 2235.72 704.099 2234.87 702.83 2234.29C701.561 2233.7 699.925 2233.41 697.92 2233.41H690.566V2271H682.541ZM705.426 2250.93L716.392 2271H707.438L696.666 2250.93H705.426Z" fill="black"/>
</g>
<defs>
<clipPath id="clip0_4682_606">
<rect width="2400" height="1600" fill="white" transform="matrix(0 1 -1 0 1600 0)"/>
</clipPath>
</defs>
</svg>
